<?xml version="1.0" standalone="no"?>
<!DOCTYPE svg PUBLIC "-//W3C//DTD SVG 20010904//EN"
 "http://www.w3.org/TR/2001/REC-SVG-20010904/DTD/svg10.dtd">
<svg version="1.0" xmlns="http://www.w3.org/2000/svg"
 width="2800.000000pt" height="2000.000000pt" viewBox="0 0 2800.000000 2000.000000"
 preserveAspectRatio="xMidYMid meet">

<g transform="translate(0.000000,2000.000000) scale(0.100000,-0.100000)"
fill="#1a202c" stroke="none">
<path d="M11816 17349 c-133 -31 -257 -142 -309 -275 -15 -40 -15 -43 3 -59
17 -16 20 -13 54 59 61 126 159 202 294 227 266 50 491 -166 443 -426 -31
-166 -153 -293 -343 -356 l-68 -22 0 -146 c0 -177 6 -221 30 -221 22 0 30 59
30 221 l0 117 31 6 c98 19 243 125 305 222 56 87 77 165 72 270 -3 81 -8 100
-41 167 -54 110 -141 180 -262 211 -64 17 -177 19 -239 5z"/>
<path d="M8080 17190 c-139 -24 -244 -66 -333 -134 -26 -20 -47 -32 -47 -27 0
11 52 83 73 100 9 7 17 22 17 32 0 72 -119 -69 -151 -178 -7 -24 -14 -43 -15
-43 -2 0 -18 9 -36 20 -18 11 -41 20 -50 20 -32 0 -19 -28 23 -52 31 -17 39
-27 36 -43 -36 -152 -39 -174 -34 -300 3 -71 11 -160 18 -197 11 -63 14 -68
38 -68 65 0 143 -62 184 -146 12 -26 25 -40 33 -37 7 3 33 64 56 135 40 120
46 133 79 154 20 12 50 40 67 60 32 38 72 139 72 179 0 12 3 24 6 28 4 3 51
-16 105 -44 252 -126 463 -178 614 -150 80 15 177 64 213 107 l29 34 26 -48
c15 -27 32 -73 38 -103 l12 -53 24 29 c108 130 77 264 -105 457 -75 79 -214
176 -299 208 -142 54 -197 62 -423 66 -118 1 -240 -1 -270 -6z"/>
<path d="M8476 16398 c-21 -72 -34 -94 -66 -110 -19 -10 -56 -18 -82 -18 -26
0 -50 -5 -54 -11 -12 -20 17 -34 72 -32 60 2 106 23 136 64 25 33 39 94 25
108 -15 15 -27 14 -31 -1z"/>
<path d="M8903 16273 c-8 -21 25 -81 59 -106 34 -25 95 -26 137 -1 54 32 31
69 -25 39 -57 -29 -93 -14 -129 54 -17 34 -32 39 -42 14z"/>
<path d="M7562 16150 c-54 -33 -30 -55 37 -34 24 7 24 7 8 -17 -26 -37 -20
-91 8 -71 6 4 19 24 29 45 11 20 23 37 27 37 4 0 17 -15 28 -33 21 -34 21 -34
1 -72 -11 -22 -20 -50 -20 -62 0 -29 -11 -29 -39 1 -24 25 -51 25 -51 -1 0
-37 85 -82 130 -68 17 5 19 12 13 51 -5 37 -2 51 16 74 20 28 20 31 5 70 -36
89 -120 124 -192 80z"/>
<path d="M8470 15990 c-39 -39 -21 -140 25 -140 24 0 48 40 48 80 0 25 -7 48
-18 60 -23 25 -30 25 -55 0z"/>
<path d="M9001 15944 c-12 -15 -21 -39 -21 -53 0 -31 25 -71 45 -71 39 0 61
102 29 134 -21 22 -29 20 -53 -10z"/>
<path d="M11887 15902 c-22 -25 -21 -75 1 -95 40 -36 102 -7 102 48 0 56 -67
86 -103 47z"/>
<path d="M7355 15755 c-116 -61 -160 -89 -160 -102 0 -11 6 -17 17 -15 14 2
312 156 327 169 3 2 -2 10 -10 17 -12 12 -37 2 -174 -69z"/>
<path d="M7776 15781 c-21 -23 -19 -62 15 -238 54 -284 161 -464 320 -541 104
-51 239 -63 308 -27 21 11 17 13 -50 24 -231 38 -396 228 -512 587 -19 60 -39
127 -42 149 -11 61 -18 69 -39 46z"/>
<path d="M8885 15760 c-4 -6 -2 -16 3 -23 27 -33 13 -104 -22 -113 -32 -8
-161 9 -161 21 0 20 -16 34 -30 28 -16 -5 -20 -40 -7 -59 12 -18 45 -32 82
-34 129 -7 139 -6 166 21 33 34 42 94 20 137 -16 32 -39 41 -51 22z"/>
<path d="M8245 15431 c-17 -4 -43 -16 -58 -26 l-28 -18 112 -48 c153 -66 153
-66 144 -37 -4 12 -18 40 -31 60 -38 59 -84 82 -139 69z"/>
<path d="M6690 15322 c0 -10 18 -27 46 -41 125 -67 220 -262 255 -526 17 -129
6 -473 -21 -650 -23 -158 -79 -436 -113 -570 -19 -72 -27 -89 -40 -87 -26 4
-31 -23 -10 -55 9 -15 20 -30 23 -33 3 -3 66 -81 141 -175 276 -347 792 -940
817 -940 8 0 17 5 19 11 2 6 -83 110 -188 230 -394 451 -749 882 -749 910 0 8
15 77 34 152 226 903 176 1567 -133 1764 -51 32 -81 36 -81 10z"/>
<path d="M12890 14755 c0 -8 28 -29 63 -46 239 -121 594 -439 1007 -904 507
-571 771 -902 1123 -1412 l77 -112 -57 30 c-90 45 -333 97 -618 131 -145 17
-692 17 -840 0 -380 -44 -832 -151 -1077 -255 -35 -15 -49 -39 -30 -51 5 -3
80 20 168 50 324 113 665 184 1031 215 179 15 654 6 808 -15 308 -41 503 -86
571 -130 79 -53 158 -147 270 -326 l103 -165 -2500 -3 -2500 -2 7 -35 c3 -19
7 -113 8 -209 l1 -174 -60 -88 c-94 -139 -201 -244 -235 -232 -5 2 42 77 105
168 l114 165 1 157 c0 99 -4 159 -10 163 -13 8 -41 -13 -39 -29 1 -6 1 -72 0
-146 l-1 -135 -106 -153 c-84 -121 -105 -158 -100 -177 9 -34 -36 -85 -75 -85
-34 0 -64 38 -56 73 5 21 5 21 -11 -3 -58 -84 -89 -98 -131 -59 -19 18 -22 29
-18 65 l4 43 -27 -21 c-22 -16 -32 -18 -48 -9 -45 24 -34 129 27 284 20 50 33
103 37 155 l7 78 -51 42 c-32 27 -60 42 -78 43 -16 0 -37 4 -47 8 -17 6 -17 8
4 35 12 16 38 35 56 43 39 16 39 36 1 41 -53 6 -146 -109 -117 -144 19 -23 7
-169 -18 -202 -33 -44 -57 -40 -88 13 -33 55 -70 167 -86 259 l-11 66 -470 0
c-444 0 -470 -1 -463 -17 24 -63 75 -225 81 -259 11 -75 -53 -410 -95 -492
-11 -21 -27 -45 -37 -52 -15 -13 -21 -10 -55 29 -39 43 -47 68 -30 87 4 5 34
77 65 160 l57 150 -38 154 c-30 121 -42 156 -55 158 -25 5 -23 -21 13 -176
l32 -134 -58 -154 c-42 -111 -55 -157 -47 -166 11 -14 -26 -160 -45 -179 -15
-15 -81 16 -92 43 -5 13 -13 37 -16 53 l-7 30 -19 -37 c-23 -46 -50 -62 -72
-45 -19 15 -37 78 -37 137 l-1 45 -20 -27 c-25 -34 -61 -36 -88 -6 -28 29 -35
73 -28 181 4 78 1 99 -18 151 -21 56 -27 63 -76 87 -44 21 -60 24 -93 18 -66
-13 -179 -10 -232 6 -68 20 -114 54 -144 107 -27 49 -543 592 -896 943 -231
231 -314 334 -398 495 -121 232 -171 495 -136 715 5 35 6 157 2 290 -6 210 -8
230 -25 230 -16 0 -18 -26 -21 -400 -5 -441 -1 -494 54 -657 39 -117 98 -231
183 -358 58 -85 127 -161 368 -405 163 -165 416 -425 562 -579 l266 -279 -42
-47 c-88 -98 -147 -255 -147 -391 l0 -67 -107 -26 c-215 -51 -379 -69 -618
-70 -165 -1 -249 4 -335 17 -429 67 -774 235 -1059 514 -82 80 -128 118 -132
111 -30 -48 -137 -499 -165 -693 -19 -132 -24 -442 -8 -510 7 -29 5 -69 -8
-150 -10 -60 -38 -238 -63 -395 -24 -157 -74 -472 -110 -700 -59 -370 -83
-529 -170 -1085 -40 -257 -124 -793 -150 -955 -35 -219 -248 -1575 -285 -1815
-17 -110 -35 -225 -40 -255 -19 -125 -193 -1229 -220 -1400 -16 -102 -45 -288
-65 -415 -19 -126 -38 -239 -40 -251 -6 -29 81 -93 215 -157 58 -28 107 -51
108 -53 2 -1 -15 -98 -37 -215 -22 -118 -37 -216 -33 -220 4 -3 141 -66 305
-138 681 -302 1072 -461 1130 -461 69 0 -95 246 -500 750 -99 124 -183 234
-186 245 -3 11 -8 30 -12 42 -5 19 5 27 82 68 136 71 125 54 166 265 35 179
177 908 257 1315 21 110 78 398 125 640 47 242 110 564 140 715 30 151 84 428
120 615 36 187 74 383 85 435 11 52 55 282 100 510 44 228 85 435 90 460 5 25
39 196 74 380 160 822 206 1054 213 1061 12 10 282 189 286 189 2 0 7 -55 11
-122 4 -68 9 -148 11 -178 3 -30 9 -136 15 -235 6 -99 12 -205 15 -235 2 -30
7 -104 10 -165 3 -60 8 -135 10 -165 2 -30 7 -98 10 -150 3 -52 8 -124 10
-160 2 -36 7 -108 10 -160 3 -52 8 -122 10 -155 2 -33 7 -109 10 -170 4 -60 8
-126 10 -145 2 -19 7 -89 10 -155 3 -66 8 -140 10 -165 3 -25 7 -94 10 -155 3
-60 8 -130 10 -155 2 -25 7 -92 10 -150 3 -58 8 -130 10 -160 4 -56 11 -149
20 -297 3 -46 7 -118 10 -160 3 -43 9 -150 15 -238 6 -88 12 -189 15 -225 2
-36 7 -103 10 -150 11 -175 16 -247 20 -300 2 -30 7 -98 10 -150 3 -52 8 -120
10 -150 3 -30 9 -129 15 -220 6 -91 12 -190 15 -220 2 -30 7 -95 10 -145 3
-49 8 -115 10 -145 6 -73 13 -178 20 -270 11 -159 36 -497 40 -540 2 -25 9
-103 16 -174 l12 -128 53 -24 c40 -17 51 -27 48 -41 -5 -22 -84 -701 -84 -724
0 -14 18 -17 128 -23 70 -3 157 -9 193 -12 l67 -6 4 153 4 154 128 240 c71
132 147 276 171 320 487 913 606 1146 1005 1960 70 143 192 391 270 550 78
160 198 403 265 540 155 316 363 739 540 1100 230 469 402 819 510 1040 177
362 504 1026 548 1113 68 135 159 208 286 232 36 7 1596 10 4680 10 3037 0
4648 4 4691 10 273 42 570 154 785 295 44 29 185 140 314 248 128 107 262 212
297 232 l64 38 0 936 c0 568 -4 963 -10 1005 -25 171 -140 307 -303 358 -58
18 -117 18 -1501 16 l-1441 -3 -80 -23 c-101 -29 -248 -98 -328 -155 -34 -23
-188 -148 -342 -277 -154 -129 -312 -257 -350 -285 -94 -67 -228 -129 -350
-162 -100 -27 -101 -27 -470 -29 -203 0 -387 2 -407 5 l-37 6 50 125 c217 546
597 1042 1077 1405 108 82 125 101 98 111 -55 21 -530 -408 -728 -656 -210
-265 -365 -530 -489 -839 -32 -79 -63 -147 -70 -152 -7 -4 -115 -8 -240 -8
l-229 -2 -27 46 c-16 25 -81 130 -146 232 -186 292 -214 361 -204 508 5 68 12
91 49 164 56 112 253 407 364 546 104 131 415 444 534 539 127 101 304 218
426 283 l109 57 -58 -67 c-31 -38 -74 -94 -95 -125 -67 -99 -234 -382 -226
-382 12 0 315 263 403 351 125 124 183 208 179 258 -4 46 -31 55 -88 30 -33
-15 -46 -17 -57 -7 -31 25 -372 -171 -589 -340 -333 -259 -642 -617 -893
-1035 -79 -132 -95 -183 -96 -304 0 -57 -1 -103 -2 -103 -1 0 -35 48 -76 108
-41 59 -122 172 -180 252 -58 80 -125 172 -149 205 -73 102 -235 301 -429 527
-606 707 -1009 1092 -1296 1237 -68 34 -103 39 -103 16z"/>
<path d="M8650 14593 c0 -10 9 -40 19 -68 56 -147 72 -390 37 -550 -21 -94
-69 -217 -117 -297 -19 -31 -134 -187 -256 -347 -123 -159 -223 -297 -223
-306 0 -43 49 9 228 240 286 372 331 443 381 595 69 210 64 496 -12 690 -22
55 -57 82 -57 43z"/>
<path d="M8795 13285 c-14 -13 -25 -29 -25 -35 0 -19 32 -24 45 -7 7 10 21 17
32 17 29 0 109 -67 177 -149 58 -71 86 -88 86 -53 0 23 -112 156 -167 200 -72
57 -112 64 -148 27z"/>
<path d="M8210 11673 c0 -9 18 -76 40 -149 22 -73 40 -141 40 -152 0 -10 -27
-95 -60 -187 -58 -163 -63 -196 -27 -182 8 3 42 87 77 186 l63 182 -38 127
c-21 70 -44 142 -51 160 -14 33 -44 44 -44 15z"/>
<path d="M10242 11667 c-6 -7 -13 -79 -17 -161 l-8 -150 -92 -140 c-51 -77
-91 -145 -88 -153 12 -32 39 -4 127 131 105 161 96 131 111 382 5 75 3 93 -9
97 -8 3 -19 0 -24 -6z"/>
<path d="M10081 11648 c-5 -13 -12 -72 -16 -133 l-7 -110 -75 -127 c-79 -133
-89 -160 -62 -166 11 -2 40 38 98 134 l81 136 12 129 c6 70 8 135 5 143 -9 23
-26 20 -36 -6z"/>
<path d="M8055 11651 c-3 -5 6 -76 21 -158 l26 -148 -30 -105 c-30 -109 -31
-133 -3 -128 11 2 25 38 48 118 l32 115 -25 145 c-15 80 -31 151 -36 158 -12
14 -25 16 -33 3z"/>
<path d="M10819 9078 c-7 -13 -31 -59 -54 -103 -23 -44 -97 -188 -165 -320
-67 -132 -153 -298 -190 -370 -37 -71 -120 -233 -185 -360 -65 -126 -148 -288
-185 -360 -117 -226 -234 -454 -343 -665 -115 -226 -402 -784 -532 -1035 -45
-88 -131 -254 -190 -370 -59 -115 -142 -277 -185 -360 -141 -272 -236 -457
-340 -660 -56 -110 -137 -267 -180 -350 -43 -82 -128 -249 -190 -370 -62 -121
-143 -278 -180 -350 -37 -71 -118 -229 -180 -350 -62 -121 -136 -265 -165
-320 -322 -617 -348 -674 -300 -675 6 0 45 69 88 153 150 294 405 791 587
1142 37 72 116 225 175 340 59 116 136 264 170 330 34 66 115 224 180 350 65
127 150 293 190 370 40 77 113 219 162 315 50 96 129 249 175 340 47 91 132
255 188 365 56 110 137 268 180 350 43 83 128 249 190 370 62 121 143 279 180
350 37 72 113 220 170 330 56 110 135 263 175 340 40 77 119 230 175 340 56
110 140 272 185 360 45 88 124 240 174 338 50 97 132 255 181 351 50 96 90
177 90 180 0 3 -9 10 -20 16 -16 8 -21 6 -31 -12z"/>
<path d="M12273 8380 c-89 -18 -172 -97 -199 -189 -36 -122 21 -250 141 -314
l40 -22 1610 -3 c1786 -3 1671 -7 1754 65 60 51 91 120 91 203 -1 107 -50 188
-144 238 l-51 27 -1600 1 c-880 1 -1619 -2 -1642 -6z m3274 -67 c52 -28 90
-77 109 -139 29 -96 -11 -185 -111 -250 -29 -19 -68 -19 -1640 -22 -1805 -3
-1658 -9 -1733 72 -63 69 -77 146 -41 226 32 70 75 108 149 131 14 4 745 7
1625 6 l1600 -2 42 -22z"/>
<path d="M24566 7788 c-2 -13 -12 -66 -21 -118 -20 -110 -102 -366 -170 -525
-162 -382 -616 -1220 -867 -1598 -32 -49 -58 -90 -58 -93 0 -6 -117 -180 -233
-349 -50 -71 -170 -235 -266 -364 -97 -129 -188 -250 -203 -270 -15 -20 -36
-61 -48 -91 l-20 -55 21 25 c11 14 74 91 140 171 226 278 352 372 544 406 128
22 598 13 810 -16 449 -61 810 -176 1149 -366 47 -27 85 -49 83 -51 -1 -1 -31
4 -67 12 -68 14 -447 18 -565 5 l-60 -6 150 -47 c302 -96 543 -147 630 -134
47 7 79 34 73 62 -2 10 -21 32 -44 49 -22 17 -39 36 -37 42 7 19 -81 77 -227
152 -362 185 -716 287 -1180 337 -200 21 -627 21 -736 -1 -77 -16 -184 -61
-254 -107 l-35 -23 39 55 c82 113 224 318 291 420 38 58 73 107 76 110 26 20
265 417 446 740 377 671 563 1079 647 1416 17 67 36 214 29 227 -9 16 -33 6
-37 -15z"/>
<path d="M16990 6179 c-542 -55 -1060 -301 -1414 -669 -208 -218 -347 -469
-402 -730 -21 -102 -24 -335 -5 -425 47 -223 141 -402 295 -563 391 -408 1068
-566 1766 -412 154 34 385 116 533 190 552 276 918 712 1002 1194 17 102 20
271 5 366 -49 304 -234 581 -518 774 -322 218 -797 322 -1262 275z m502 -55
c661 -85 1144 -477 1228 -997 19 -117 8 -329 -23 -447 -125 -477 -530 -893
-1101 -1132 -471 -197 -1014 -231 -1468 -94 -127 39 -289 111 -383 171 -404
259 -604 674 -530 1101 83 473 438 900 972 1168 250 125 508 199 828 239 85
11 365 5 477 -9z"/>
<path d="M16157 5553 c-4 -3 -7 -13 -7 -22 0 -9 171 -187 380 -396 l379 -379
-362 -216 c-199 -118 -442 -263 -540 -320 -97 -58 -205 -123 -240 -145 -60
-39 -78 -67 -47 -73 9 -1 128 64 265 146 138 82 410 244 605 361 l355 211 366
-366 c360 -360 399 -393 399 -339 0 9 -162 177 -360 374 l-360 357 117 70 c65
39 264 157 443 264 541 321 615 367 618 384 8 37 -32 25 -150 -47 -68 -41
-269 -161 -448 -267 -179 -106 -390 -232 -470 -281 l-145 -88 -390 390 c-215
214 -393 389 -396 389 -3 0 -9 -3 -12 -7z"/>
<path d="M23040 4284 c-94 -21 -221 -60 -336 -105 -78 -30 -104 -45 -112 -65
-7 -14 -12 -27 -12 -29 0 -2 29 9 64 25 93 42 284 107 373 126 108 23 467 23
653 0 501 -61 1026 -252 1424 -517 114 -76 146 -88 146 -54 0 22 -229 170
-400 258 -385 197 -765 314 -1185 362 -168 19 -524 19 -615 -1z"/>
</g>
</svg>
