<?xml version="1.0" standalone="no"?>
<!DOCTYPE svg PUBLIC "-//W3C//DTD SVG 20010904//EN"
 "http://www.w3.org/TR/2001/REC-SVG-20010904/DTD/svg10.dtd">
<svg version="1.0" xmlns="http://www.w3.org/2000/svg"
 width="2000.000000pt" height="2000.000000pt" viewBox="0 0 2000.000000 2000.000000"
 preserveAspectRatio="xMidYMid meet">

<g transform="translate(0.000000,2000.000000) scale(0.100000,-0.100000)"
fill="#1a202c" stroke="none">
<path d="M8032 16989 c-32 -21 -62 -65 -62 -91 0 -7 8 3 18 22 21 43 75 80
116 80 36 0 89 -30 110 -62 8 -13 87 -219 176 -458 89 -239 197 -531 241 -647
43 -117 79 -225 79 -240 0 -16 -9 -42 -20 -60 -37 -62 -115 -80 -176 -43 -37
24 -30 6 -243 573 -73 191 -149 392 -170 445 -21 53 -54 140 -74 192 l-37 95
-1012 -5 c-941 -5 -1016 -6 -1058 -23 -156 -62 -274 -205 -300 -363 -6 -35
-10 -402 -10 -882 l0 -824 -30 30 c-18 19 -47 34 -77 40 -33 8 -426 9 -1264 4
l-1215 -7 -43 -28 c-26 -18 -41 -34 -37 -42 3 -10 0 -12 -11 -8 -12 5 -15 2
-10 -10 4 -10 2 -14 -6 -11 -16 6 -109 -85 -100 -99 3 -5 1 -7 -4 -4 -13 8
-46 -27 -36 -37 4 -4 -1 -4 -12 0 -15 6 -17 4 -12 -10 4 -9 3 -15 -1 -13 -4 3
-25 -11 -47 -30 -22 -19 -33 -32 -25 -28 8 4 -2 -7 -23 -25 -21 -18 -36 -38
-33 -46 3 -9 0 -11 -11 -7 -13 5 -15 2 -10 -11 4 -10 3 -15 -3 -11 -14 9 -82
-56 -75 -72 2 -8 1 -11 -5 -8 -13 8 -62 -36 -56 -52 3 -8 -1 -10 -11 -6 -13 5
-15 2 -10 -11 4 -10 3 -15 -3 -11 -14 9 -82 -56 -75 -72 3 -8 0 -11 -6 -7 -12
7 -71 -55 -63 -67 3 -5 -3 -6 -12 -2 -14 5 -16 3 -11 -11 4 -11 3 -15 -4 -10
-13 8 -142 -123 -134 -136 4 -6 -1 -7 -11 -3 -14 5 -16 3 -11 -11 4 -11 3 -15
-4 -10 -13 8 -142 -123 -134 -136 4 -6 -1 -7 -11 -3 -14 5 -16 3 -11 -11 4
-11 3 -15 -4 -10 -13 8 -142 -123 -134 -136 4 -6 -1 -7 -11 -3 -14 5 -16 3
-11 -11 4 -11 3 -15 -4 -10 -13 8 -142 -123 -134 -136 4 -6 -1 -7 -11 -3 -14
5 -16 3 -11 -11 4 -11 3 -15 -4 -10 -13 8 -142 -123 -134 -136 4 -6 -1 -7 -11
-3 -14 5 -16 3 -11 -11 4 -11 3 -15 -4 -10 -13 8 -142 -123 -134 -136 4 -6 -1
-7 -11 -3 -14 5 -16 3 -11 -11 4 -11 3 -15 -4 -11 -6 4 -26 -9 -45 -28 -32
-32 -36 -42 -44 -114 -5 -43 -8 -609 -7 -1258 2 -1149 3 -1182 21 -1210 33
-50 98 -115 109 -108 6 3 7 1 4 -4 -8 -13 17 -36 28 -25 5 4 5 2 2 -4 -8 -14
146 -167 158 -157 4 4 5 3 2 -3 -8 -14 146 -167 158 -157 4 4 5 3 2 -3 -8 -14
146 -167 158 -157 4 4 5 3 2 -3 -8 -14 146 -167 158 -157 4 4 5 3 2 -3 -8 -14
146 -167 158 -157 4 4 5 3 2 -3 -8 -14 146 -167 158 -157 4 4 5 3 2 -3 -8 -14
146 -167 158 -157 4 4 5 3 2 -3 -7 -12 145 -168 156 -159 4 3 5 2 2 -2 -8 -10
117 -133 128 -126 6 3 7 1 4 -4 -8 -13 17 -36 28 -25 5 4 5 2 2 -4 -8 -14 66
-87 78 -77 4 5 5 3 2 -3 -8 -14 82 -100 118 -114 16 -6 212 -10 516 -10 l489
0 0 -3580 0 -3580 -634 0 -633 1 44 47 c86 91 126 208 127 372 1 83 -4 120
-22 178 -12 39 -27 72 -32 72 -4 0 -2 12 5 28 22 44 252 986 275 1122 44 269
47 279 109 409 70 149 81 182 121 366 39 175 82 325 126 434 37 91 46 134 14
63 -46 -101 -101 -268 -135 -412 -64 -269 -75 -302 -140 -440 -66 -138 -70
-153 -105 -370 -11 -68 -34 -183 -51 -255 -55 -234 -220 -899 -224 -903 -2 -3
-19 25 -36 61 -18 36 -36 64 -41 61 -4 -3 -5 1 -2 9 3 8 1 18 -5 21 -6 4 -3
19 7 39 12 25 17 77 22 232 8 238 11 248 125 419 42 64 86 140 97 169 25 63
26 155 4 247 -22 90 -20 175 4 229 11 23 49 84 84 135 112 162 136 223 196
518 63 310 123 440 245 527 l44 32 5 -36 c4 -19 8 -50 11 -68 32 -209 24 -352
-29 -474 -59 -139 -74 -202 -101 -439 -32 -283 -50 -359 -114 -478 -66 -122
-81 -182 -81 -332 0 -164 -10 -205 -86 -364 -78 -164 -85 -214 -60 -383 29
-196 21 -248 -54 -367 -52 -79 -71 -121 -69 -148 0 -9 5 -2 11 17 5 19 32 70
60 113 28 44 57 96 64 116 18 50 17 155 -2 291 -21 152 -12 201 65 356 33 66
64 138 70 161 6 23 15 121 19 218 l9 177 66 132 c78 154 86 184 121 504 24
206 28 231 67 330 81 213 79 204 79 330 0 64 -8 174 -17 244 l-16 128 -30 -15
c-47 -25 -117 -94 -158 -158 -60 -91 -95 -198 -139 -415 -57 -286 -78 -341
-185 -496 -120 -174 -131 -217 -95 -391 34 -169 21 -224 -99 -401 -112 -168
-138 -253 -127 -424 7 -99 -7 -226 -25 -244 -7 -7 -10 -7 -8 0 1 6 -10 36 -25
68 -57 124 -71 199 -67 352 8 313 7 348 -13 412 -11 36 -23 60 -29 56 -6 -3
-7 -2 -4 4 8 13 -28 84 -38 75 -5 -4 -5 -2 -1 5 9 16 -53 115 -66 106 -7 -3
-8 -1 -4 6 4 6 -5 33 -22 59 -16 26 -33 57 -37 70 -3 12 -10 20 -14 18 -4 -3
-7 3 -8 12 0 9 -7 47 -15 84 -11 48 -13 82 -6 123 4 31 5 61 2 67 -4 6 -3 8 3
5 9 -6 19 26 48 161 23 108 -8 209 -111 363 -26 38 -50 66 -55 63 -5 -3 -6 2
-3 10 3 9 -3 30 -14 48 -51 83 -89 217 -117 408 -9 63 -21 123 -26 133 -5 10
-7 22 -4 27 3 5 1 38 -6 72 -6 35 -13 76 -16 93 -18 108 -88 291 -119 308 -8
4 -14 15 -14 24 0 33 -139 183 -170 183 -4 0 -11 -26 -15 -57 -3 -32 -13 -80
-20 -108 -36 -132 -45 -423 -15 -490 7 -16 14 -37 16 -45 2 -8 7 -23 13 -35 6
-11 20 -54 32 -95 11 -41 28 -84 37 -94 12 -13 12 -17 3 -11 -11 6 -13 4 -8
-8 10 -25 25 -199 37 -417 11 -198 23 -299 40 -345 5 -14 8 -25 5 -25 -4 0 37
-103 58 -142 8 -15 18 -24 22 -20 5 4 5 2 1 -5 -3 -6 5 -36 18 -65 39 -86 46
-148 44 -373 l-3 -210 32 -80 c49 -127 86 -204 95 -199 4 3 5 -3 1 -12 -5 -13
-3 -15 7 -9 8 5 11 4 6 -3 -3 -6 1 -36 9 -68 17 -67 19 -169 4 -234 -6 -25
-11 -60 -13 -79 -3 -47 -18 -49 -43 -4 -29 51 -42 137 -42 267 -1 165 -32 218
-173 300 -26 15 -59 41 -72 57 -24 29 -31 48 -76 209 -48 171 -121 319 -233
467 -88 117 -91 117 -84 -14 10 -189 49 -324 149 -519 87 -171 97 -218 75
-352 -23 -139 -22 -245 3 -301 11 -24 49 -82 84 -130 96 -131 110 -163 110
-246 0 -60 -7 -86 -44 -175 -54 -129 -61 -192 -31 -268 46 -115 160 -248 261
-301 80 -43 170 -60 320 -63 69 -1 -19 -5 -195 -9 -176 -3 -399 -8 -495 -10
-96 -2 2491 -6 5750 -9 l5924 -5 27 -73 c40 -108 79 -142 161 -142 99 0 163
91 135 193 l-7 27 464 0 c413 0 465 2 477 16 21 25 51 33 151 39 51 3 226 17
388 31 162 13 405 33 540 44 135 11 255 21 266 23 19 3 23 -2 27 -35 3 -22 8
-42 11 -45 19 -20 146 108 187 189 50 99 49 23 49 2085 l0 1922 176 398 c241
544 245 554 295 670 24 56 47 103 50 103 3 0 11 -35 17 -77 6 -43 45 -307 86
-588 204 -1390 205 -1395 250 -1570 25 -93 97 -370 161 -615 64 -245 131 -503
150 -575 19 -71 86 -329 150 -573 63 -244 136 -523 161 -620 67 -257 93 -354
97 -358 2 -3 24 5 48 16 24 11 49 20 54 20 14 0 58 -134 45 -138 -5 -2 -7 -9
-4 -16 3 -8 -14 -25 -43 -41 -72 -42 -244 -163 -278 -196 -17 -16 -36 -29 -42
-29 -7 0 -19 -10 -28 -22 -8 -13 -17 -21 -18 -18 -2 3 -11 -2 -20 -11 -9 -9
-13 -20 -9 -25 4 -5 0 -3 -8 3 -19 14 -1808 18 -2000 4 -69 -5 304 -9 935 -10
l1050 -2 -30 -27 c-55 -51 -59 -59 -25 -54 16 2 27 8 24 13 -3 5 1 6 9 3 8 -3
75 11 148 32 74 20 181 49 239 64 58 15 173 46 255 68 83 22 229 61 325 86
202 54 240 65 240 73 0 7 -56 216 -70 263 -6 19 -18 69 -26 110 -9 41 -18 84
-21 96 -4 16 1 23 17 27 18 4 21 11 17 29 -17 71 -18 151 -2 249 l17 104 -72
360 c-39 198 -89 448 -111 555 -21 107 -106 539 -189 960 -83 421 -155 784
-160 807 -7 28 -7 91 0 185 5 79 23 355 40 613 16 259 32 499 35 535 3 36 9
137 15 225 5 88 12 196 15 240 4 44 12 175 20 290 l14 210 -75 447 -74 447 35
72 34 72 -21 41 c-11 22 -25 44 -30 47 -5 3 -9 9 -7 13 5 15 -85 185 -94 179
-6 -3 -7 -1 -3 5 9 14 -75 183 -87 175 -6 -3 -7 -1 -3 5 9 14 -277 595 -289
585 -4 -4 -5 -3 -2 4 9 14 -67 166 -78 156 -4 -5 -5 -3 -2 4 9 15 -2 45 -14
37 -5 -3 -9 4 -9 15 0 34 -39 113 -51 105 -7 -4 -9 -3 -6 3 7 12 -14 73 -25
73 -4 0 -8 5 -8 10 0 21 -57 129 -65 122 -4 -4 -6 0 -3 8 6 18 -55 161 -125
293 -107 202 -335 569 -348 561 -4 -2 -10 8 -13 21 -4 16 -11 23 -18 19 -7 -4
-8 -3 -4 4 7 12 -110 202 -126 202 -5 0 -7 3 -5 8 7 10 -19 32 -29 24 -4 -4
-4 -2 -1 4 10 17 -166 252 -185 246 -5 -1 -7 1 -4 6 8 14 -25 54 -40 48 -8 -3
-11 0 -8 8 6 16 -69 99 -81 89 -4 -5 -5 -3 -2 3 8 14 -160 187 -174 179 -5 -4
-8 -1 -7 6 2 7 -29 37 -69 68 l-72 55 81 38 c91 43 137 47 185 18 45 -27 66
-73 60 -128 -3 -28 -1 -39 4 -31 14 22 10 78 -7 115 -20 41 -45 61 -96 75
l-38 10 0 2098 c0 1468 -3 2115 -11 2156 -32 172 -165 316 -334 360 -53 13
-477 15 -3851 15 l-3792 0 -27 70 c-14 38 -35 81 -47 95 -44 57 -127 72 -186
34z m743 -1034 c130 -34 268 -139 327 -250 39 -74 309 -869 321 -948 27 -173
-50 -364 -192 -476 l-39 -31 -41 106 c-46 119 -47 126 -25 145 8 7 27 36 42
63 23 43 27 63 26 131 0 77 -6 96 -140 480 -77 220 -152 419 -167 442 -31 49
-83 86 -153 111 l-48 18 -42 112 -41 112 56 0 c31 0 83 -7 116 -15z m-405
-214 l43 -113 -23 -47 c-14 -28 -24 -72 -27 -111 -4 -62 1 -82 131 -468 75
-222 145 -420 155 -441 25 -48 83 -104 131 -126 36 -16 40 -23 82 -139 l45
-121 -24 -3 c-76 -10 -243 60 -324 135 -101 94 -104 102 -260 551 -62 177
-114 321 -115 319 -8 -8 228 -693 258 -750 44 -83 137 -174 218 -214 73 -36
166 -63 220 -63 l35 0 78 -209 c42 -115 77 -214 77 -220 0 -6 -16 -25 -35 -42
-72 -63 -157 -229 -154 -303 0 -11 7 4 15 34 22 84 68 169 122 228 26 28 53
52 58 52 5 0 29 -52 51 -115 l42 -115 -21 -36 c-15 -26 -23 -59 -26 -113 l-4
-77 136 -404 c75 -223 148 -423 161 -446 28 -48 70 -86 126 -115 l39 -19 0 37
c0 108 120 167 209 104 15 -11 33 -33 39 -48 6 -16 67 -179 136 -363 68 -184
174 -469 235 -633 125 -336 129 -357 78 -413 -54 -60 -149 -55 -192 9 -8 12
-91 223 -183 467 -266 699 -305 800 -309 796 -3 -3 32 -102 62 -178 6 -15 2
-18 -25 -18 -102 0 -243 65 -329 151 -89 89 -115 149 -293 672 -22 65 -42 116
-44 114 -8 -8 206 -629 237 -687 39 -73 143 -174 220 -212 64 -32 159 -58 210
-58 35 0 38 -3 52 -42 8 -24 45 -124 82 -223 36 -99 87 -235 111 -303 l45
-123 -53 -57 c-98 -107 -149 -237 -146 -377 1 -69 1 -69 8 25 5 56 17 118 29
151 26 70 86 163 134 207 l35 34 27 -74 c16 -40 36 -93 45 -118 18 -45 18 -45
-8 -95 -21 -40 -26 -64 -25 -120 0 -63 14 -111 138 -475 75 -223 146 -419 156
-437 40 -65 119 -119 191 -131 l40 -7 43 -115 42 -115 -60 -3 c-81 -4 -154 13
-239 55 -83 42 -179 133 -220 209 -14 27 -83 214 -154 417 -70 202 -129 366
-131 364 -1 -2 54 -172 122 -378 130 -388 155 -445 232 -524 24 -24 40 -46 36
-48 -5 -3 -28 -8 -52 -12 -27 -4 -219 -95 -485 -227 -430 -215 -442 -222 -506
-287 -115 -116 -162 -235 -159 -404 l2 -98 -43 -31 c-41 -30 -130 -74 -457
-225 l-142 -65 -58 50 c-113 97 -227 142 -364 142 -130 0 -161 -12 -619 -241
-420 -210 -437 -219 -502 -284 -110 -108 -178 -280 -164 -416 l5 -56 -77 -36
c-42 -20 -193 -90 -334 -155 l-258 -120 0 924 c0 614 3 925 10 929 6 4 7 11 4
17 -4 7 -2 8 4 4 11 -7 59 50 55 65 -2 4 5 5 14 2 13 -5 15 -2 10 11 -4 11 -3
15 4 10 13 -8 142 123 134 136 -4 6 1 7 11 3 14 -5 16 -3 11 11 -4 11 -3 15 4
10 13 -8 142 123 134 136 -4 6 1 7 11 3 14 -5 16 -3 11 11 -4 11 -3 15 4 10
13 -8 142 123 134 136 -4 6 1 7 11 3 14 -5 16 -3 11 11 -4 11 -3 15 4 10 13
-8 142 123 134 136 -4 6 1 7 11 3 14 -5 16 -3 11 11 -4 11 -3 15 4 10 13 -8
142 123 134 136 -4 6 1 7 11 3 14 -5 16 -3 11 11 -4 11 -3 15 4 10 13 -8 142
123 134 136 -4 6 1 7 11 3 14 -5 16 -3 11 11 -4 11 -3 15 4 10 13 -8 142 123
134 136 -4 6 1 7 11 3 14 -5 16 -3 11 11 -4 10 -3 15 3 11 12 -8 125 99 145
137 13 22 15 215 15 1266 0 860 -3 1249 -11 1269 -6 15 -313 331 -690 708
l-679 680 0 693 0 692 1125 0 c619 0 1125 -2 1125 -4 0 -2 -11 -23 -24 -47
-30 -53 -56 -150 -55 -199 1 -29 3 -27 9 16 17 114 61 205 138 286 30 32 56
57 57 56 2 -2 22 -54 45 -117z m7570 -1800 l0 -1808 -32 6 c-17 4 -61 1 -97
-5 -100 -17 -122 -25 -114 -38 5 -8 3 -8 -8 0 -11 9 -24 8 -57 -5 -23 -9 -39
-21 -35 -26 4 -4 3 -5 -3 -2 -12 7 -173 -76 -186 -96 -4 -6 -8 -8 -8 -4 0 4
-21 -7 -47 -25 -54 -36 -50 -36 -70 -11 -8 10 -11 12 -7 4 5 -9 3 -12 -5 -7
-6 4 -9 11 -7 15 6 9 -61 77 -72 75 -4 -1 -6 1 -5 6 1 4 -13 22 -32 40 l-35
34 -42 -34 c-42 -34 -106 -92 -174 -157 -18 -18 -38 -33 -45 -33 -6 0 -8 -7
-5 -16 3 -9 2 -12 -5 -8 -6 3 -18 -2 -28 -12 -10 -11 -46 -44 -81 -74 -35 -30
-128 -112 -206 -182 -141 -126 -143 -127 -343 -228 -111 -55 -219 -116 -240
-136 -50 -44 -82 -110 -90 -182 -4 -33 -12 -58 -21 -63 -8 -5 -58 -29 -110
-54 -112 -52 -108 -55 -109 76 -2 199 99 370 281 472 45 26 88 49 93 51 6 2 7
7 3 11 -15 16 -174 -80 -239 -145 -117 -115 -163 -236 -158 -412 l4 -111 -50
-23 c-28 -13 -171 -80 -319 -149 -148 -69 -273 -125 -278 -125 -5 0 -29 19
-53 41 -97 91 -205 139 -331 147 -151 9 -176 0 -627 -225 -225 -112 -436 -222
-468 -244 -67 -45 -127 -116 -169 -199 -37 -73 -51 -127 -58 -230 l-7 -84
-175 -83 c-96 -45 -177 -82 -180 -82 -7 -1 -30 60 -30 78 0 7 25 40 55 72 57
62 107 154 124 229 17 73 13 208 -8 280 -37 128 -273 805 -299 859 -15 30 -49
79 -77 110 -97 107 -223 166 -376 179 l-83 7 -123 325 -123 325 28 19 c56 39
130 126 164 193 46 89 63 159 61 264 -1 94 -3 101 -198 669 -103 299 -119 338
-171 407 -96 126 -232 197 -407 211 l-80 7 -75 199 c-71 188 -74 199 -56 209
40 21 140 134 171 193 59 112 77 245 49 369 -18 82 -283 852 -307 893 -10 18
-19 37 -19 43 0 5 1283 9 3415 9 l3415 0 0 -1809z m-7132 1737 c23 -16 54 -47
67 -68 13 -21 88 -227 165 -457 130 -384 141 -423 137 -474 -6 -68 -63 -186
-82 -168 -3 4 -27 63 -52 130 -25 68 -55 137 -66 153 -36 51 -119 71 -177 41
-30 -16 -70 -60 -70 -79 0 -6 9 3 19 20 20 32 74 64 110 64 35 0 88 -27 105
-52 9 -13 63 -150 120 -304 291 -780 369 -992 378 -1022 19 -68 -49 -152 -124
-152 -37 0 -92 29 -106 57 -6 10 -56 140 -112 288 -56 149 -124 326 -150 395
-61 160 -172 451 -195 513 -10 26 -20 46 -22 44 -2 -3 8 -37 23 -76 15 -39 24
-74 21 -78 -10 -9 -87 53 -113 90 -13 19 -87 218 -165 443 -127 364 -143 416
-143 474 0 46 6 77 21 105 l21 39 26 -54 c32 -68 65 -92 130 -98 41 -3 58 1
86 20 65 43 84 115 55 198 -8 23 -15 46 -15 51 0 13 61 -12 108 -43z m-3325
-1094 c18 -9 52 -37 75 -63 24 -25 48 -45 53 -43 5 1 9 -3 9 -8 0 -14 142
-156 152 -152 4 1 8 -2 8 -8 0 -17 122 -140 133 -133 5 3 7 2 4 -4 -3 -5 271
-286 609 -623 337 -338 614 -618 614 -623 0 -4 4 -5 10 -2 9 6 8 -2365 -1
-2422 -2 -12 -6 -20 -8 -17 -3 3 -378 -368 -833 -823 l-828 -828 -1186 -5
c-1185 -5 -1187 -5 -1223 16 -20 11 -60 45 -89 75 -29 30 -58 54 -65 54 -7 0
-12 5 -12 11 0 6 -334 346 -743 755 -409 408 -750 756 -758 771 -21 41 -21
2365 0 2407 8 15 387 399 842 854 l827 827 1189 0 c1074 0 1192 -2 1221 -16z
m4045 -789 c139 -33 264 -130 331 -255 47 -89 310 -870 319 -948 15 -132 -14
-249 -90 -363 -42 -63 -136 -146 -148 -132 -8 9 -80 205 -80 217 0 4 15 26 34
47 18 22 40 61 47 87 27 97 20 130 -130 561 -78 222 -150 419 -162 437 -32 52
-98 103 -155 120 l-51 15 -38 102 c-21 56 -40 108 -42 115 -7 17 85 16 165 -3z
m-14 -249 c45 -19 110 -79 130 -120 8 -18 76 -213 151 -432 114 -339 135 -408
135 -459 0 -64 -25 -133 -62 -172 l-21 -23 -19 31 c-34 56 -125 76 -186 39
-35 -21 -72 -74 -72 -102 0 -26 -21 -22 -68 12 -54 39 -84 93 -136 246 -25 71
-87 253 -140 404 -106 304 -114 345 -75 430 l20 45 27 -55 c32 -66 78 -100
134 -100 119 0 181 94 140 213 -23 64 -19 68 42 43z m5561 -1576 c3 -6 -1 -7
-9 -4 -18 7 -21 14 -7 14 6 0 13 -4 16 -10z m139 -76 c3 -8 2 -12 -4 -9 -6 3
-10 10 -10 16 0 14 7 11 14 -7z m369 -157 c4 3 7 4 7 1 0 -3 -8 -12 -17 -19
-10 -7 -15 -9 -11 -5 4 5 2 16 -5 25 -10 14 -10 14 4 4 9 -7 19 -10 22 -6z
m-49 -125 c3 -5 -1 -9 -9 -9 -8 0 -12 4 -9 9 3 4 7 8 9 8 2 0 6 -4 9 -8z
m-1109 -260 c9 -21 19 -31 26 -26 8 4 9 3 5 -5 -4 -6 0 -24 10 -39 10 -15 19
-30 20 -34 1 -5 3 -11 4 -15 7 -19 5 -39 -6 -50 -7 -7 -33 -50 -59 -95 -27
-46 -59 -96 -72 -112 -35 -42 -75 -135 -67 -159 4 -13 2 -17 -5 -13 -7 5 -11
-4 -11 -24 0 -26 -6 -33 -35 -46 -41 -17 -104 -18 -156 -2 -33 9 -37 13 -27
27 8 9 3 8 -10 -3 l-23 -20 26 -14 c38 -19 123 -26 169 -13 22 6 41 9 42 8 1
-1 5 -47 7 -102 3 -55 8 -108 12 -117 5 -13 -1 -18 -32 -25 -118 -24 -273 7
-378 75 -97 62 -97 62 1 106 46 21 83 41 81 43 -3 2 -254 -112 -558 -253 -685
-317 -689 -319 -723 -310 -41 10 -95 63 -102 102 -18 95 12 120 306 257 263
123 313 147 750 353 300 141 330 150 390 119 30 -16 57 -57 71 -110 7 -26 8
-24 4 10 -9 78 -70 130 -151 129 -52 0 -54 1 -54 26 0 46 31 118 68 160 28 32
84 66 237 144 224 115 202 113 240 28z m-4050 23 c33 -9 85 -28 115 -42 72
-35 188 -151 223 -223 28 -57 287 -809 308 -893 18 -75 7 -219 -24 -294 -29
-71 -99 -175 -131 -197 -22 -14 -23 -12 -65 101 -24 63 -41 122 -38 131 3 10
13 35 21 57 33 87 24 140 -78 436 -200 583 -193 565 -245 622 -26 29 -109 77
-133 77 -27 0 -40 20 -78 121 -22 57 -40 107 -40 111 0 14 103 9 165 -7z
m6385 -70 c14 -19 14 -19 -2 -6 -10 7 -18 18 -18 24 0 6 1 8 3 6 1 -2 9 -13
17 -24z m-285 -65 c-3 -5 -12 -10 -18 -10 -7 0 -6 4 3 10 19 12 23 12 15 0z
m-1475 -84 c0 -2 -7 -7 -16 -10 -8 -3 -12 -2 -9 4 6 10 25 14 25 6z m-4571
-73 c63 -53 51 -25 232 -562 128 -381 136 -419 102 -502 l-16 -42 -21 44 c-27
57 -75 89 -134 89 -48 0 -105 -28 -117 -57 -5 -14 -2 -13 17 3 34 32 63 44
100 44 38 0 92 -30 108 -59 10 -20 51 -128 193 -511 36 -96 95 -256 132 -355
169 -455 167 -448 162 -493 -11 -97 -123 -142 -201 -81 -14 11 -37 52 -54 97
-17 42 -69 181 -117 307 -181 477 -336 879 -342 885 -3 3 -2 -6 2 -19 7 -23 6
-24 -26 -17 -47 9 -116 54 -151 98 -45 54 -318 848 -318 922 0 51 25 146 38
146 4 0 18 -24 32 -53 55 -114 174 -132 254 -37 31 37 35 102 11 170 -8 23
-15 44 -15 46 0 12 96 -34 129 -63z m5428 52 c0 -8 -3 -13 -5 -10 -3 3 -12 -1
-21 -7 -10 -8 -9 -4 3 10 23 26 23 26 23 7z m-127 -109 c0 -2 -8 -10 -17 -17
-16 -13 -17 -12 -4 4 13 16 21 21 21 13z m1384 -262 c3 -8 2 -12 -4 -9 -6 3
-10 10 -10 16 0 14 7 11 14 -7z m-4450 -44 c43 -11 101 -32 129 -47 51 -28
156 -117 147 -125 -3 -2 -53 -26 -112 -52 l-106 -49 -49 24 c-40 20 -63 24
-138 24 l-90 -1 -385 -193 c-212 -106 -404 -206 -426 -222 -46 -31 -100 -109
-110 -156 -5 -28 -17 -36 -125 -86 -136 -64 -136 -64 -125 36 17 164 101 312
225 394 108 73 871 450 931 461 87 15 151 13 234 -8z m3544 -15 c-3 -3 -9 2
-12 12 -6 14 -5 15 5 6 7 -7 10 -15 7 -18z m-964 0 c-18 -13 -17 -14 17 -15
19 0 41 6 48 13 11 10 13 10 7 0 -4 -8 -2 -14 6 -14 7 -1 23 -3 36 -4 13 -1
27 -6 31 -11 5 -5 16 -112 25 -239 9 -126 19 -247 22 -269 l6 -38 -33 7 c-19
4 -90 23 -159 41 -170 47 -198 43 -247 -34 -79 -123 -144 -170 -216 -157 -25
5 -46 1 -76 -15 -63 -32 -118 -31 -146 3 -23 26 -24 26 -60 11 -52 -21 -107
-15 -121 14 -20 41 -25 -3 -9 -81 8 -40 36 -173 60 -297 25 -124 51 -235 57
-247 5 -11 7 -26 3 -33 -4 -6 1 -18 11 -26 11 -9 13 -13 7 -9 -8 4 -13 0 -13
-10 0 -9 4 -14 9 -11 5 4 7 -2 4 -12 -2 -10 2 -45 11 -78 14 -53 14 -61 0 -82
-9 -13 -34 -32 -57 -43 -23 -10 -38 -19 -33 -19 5 0 -17 -19 -50 -41 -32 -23
-61 -43 -64 -46 -9 -8 34 -27 103 -45 134 -34 177 -82 177 -194 0 -119 -49
-284 -84 -284 -5 0 -7 -3 -4 -6 4 -3 31 6 62 20 31 14 61 26 67 26 6 0 7 4 4
10 -3 5 0 8 7 5 21 -8 301 133 292 146 -4 8 -3 9 4 5 11 -6 124 65 181 114 21
18 23 23 10 31 -11 8 -9 9 6 5 16 -5 27 5 54 46 39 59 47 106 32 198 -6 36
-12 83 -15 105 -12 111 -27 199 -37 211 -6 7 -8 18 -4 23 3 6 -1 48 -10 93
-15 75 -26 134 -42 223 -2 17 -10 36 -15 43 -7 8 -7 12 0 12 6 0 89 -101 184
-225 186 -242 230 -304 223 -314 -2 -4 7 -58 20 -121 13 -63 31 -151 40 -195
9 -44 19 -87 22 -95 3 -8 5 -18 5 -22 -1 -4 11 -63 27 -130 16 -68 34 -151 41
-184 11 -57 15 -62 42 -68 17 -3 35 -3 41 1 5 3 7 1 3 -5 -7 -12 29 -26 44
-17 5 3 8 0 5 -7 -2 -7 -38 -132 -80 -278 -42 -146 -96 -332 -120 -415 -24
-82 -78 -269 -120 -415 -77 -268 -248 -856 -396 -1360 -44 -151 -98 -331 -119
-400 -21 -69 -41 -154 -44 -190 -10 -111 32 -766 109 -1680 32 -383 34 -407
46 -524 5 -54 9 -109 9 -122 l0 -24 -734 0 -734 0 -7 32 c-6 32 -76 240 -229
684 -80 233 -112 291 -203 374 -91 83 -197 127 -330 137 -62 4 -83 10 -88 22
-4 9 -40 111 -80 226 -40 116 -94 268 -120 340 l-46 130 28 19 c54 37 139 133
170 193 47 87 66 179 60 288 -4 84 -15 119 -147 505 -78 228 -158 445 -177
481 -87 167 -275 279 -472 279 l-56 0 -124 331 c-118 313 -123 332 -105 341
41 22 144 138 172 195 53 103 65 163 59 282 -5 104 -7 112 -140 496 -125 363
-135 397 -140 485 -6 92 -28 185 -61 261 l-15 36 323 8 c306 7 326 6 392 -13
38 -12 215 -59 394 -106 752 -198 1236 -326 1247 -330 6 -3 28 20 50 51 21 31
42 61 47 68 6 8 -6 26 -38 55 -25 23 -46 49 -46 56 0 8 -10 16 -22 19 -13 3
-111 25 -218 50 -107 25 -438 101 -735 170 -297 69 -546 125 -553 125 -8 0
-10 -5 -6 -12 4 -8 3 -10 -2 -5 -5 5 -9 12 -9 15 -1 22 -21 32 -69 32 -45 0
-56 4 -81 30 -19 20 -29 42 -32 72 l-4 43 148 74 c160 81 108 63 1278 432 297
94 543 174 548 178 4 4 23 39 41 78 l34 71 -76 -5 c-62 -5 -184 -39 -617 -176
-297 -93 -548 -171 -557 -174 -14 -4 -11 6 13 50 36 67 59 167 59 260 l0 68
98 46 c53 25 205 97 336 159 224 107 241 113 260 99 139 -102 226 -136 356
-138 135 -3 149 3 238 94 53 54 87 81 107 85 17 3 59 12 95 20 36 9 76 17 90
19 14 2 49 6 79 10 30 4 66 12 80 18 16 7 102 11 218 12 106 0 195 4 199 8 4
4 12 7 18 7 5 0 1 -7 -10 -15z m683 -1 c-3 -3 -12 -4 -19 -1 -8 3 -5 6 6 6 11
1 17 -2 13 -5z m1327 -210 c3 -8 2 -12 -4 -9 -6 3 -10 10 -10 16 0 14 7 11 14
-7z m-4649 -19 c33 -9 66 -22 74 -30 13 -12 8 -17 -30 -34 -57 -26 -72 -39
-92 -78 -34 -65 -11 -158 47 -194 57 -35 95 -34 189 6 38 16 5 -70 -54 -142
-20 -25 -15 -21 14 10 28 29 52 67 62 98 l17 52 113 53 c63 30 116 54 119 54
12 0 5 -128 -9 -185 -19 -75 -71 -182 -93 -194 -9 -5 -154 -52 -322 -104 -257
-81 -317 -97 -382 -99 -57 -2 -74 0 -65 8 7 6 107 60 224 120 116 60 210 110
209 112 -3 3 -425 -203 -471 -230 -11 -6 -46 -10 -79 -9 -39 2 -56 -1 -52 -8
4 -6 1 -9 -7 -5 -15 5 -47 -20 -47 -37 0 -5 -87 -9 -217 -8 l-217 1 -33 29
c-51 44 -122 37 -168 -17 -5 -6 -30 -15 -54 -18 -60 -9 -155 -61 -186 -101
-23 -31 -27 -32 -62 -24 -21 5 -54 9 -74 9 -29 0 -38 5 -47 25 -19 41 -15 50
31 70 23 10 98 45 167 78 69 32 152 72 185 87 33 15 118 55 189 89 141 67 180
74 233 41 62 -38 82 -123 42 -186 -11 -19 -18 -34 -16 -34 17 0 47 73 47 111
0 104 -102 172 -199 133 -23 -9 -44 -15 -46 -13 -9 10 36 87 72 123 68 66 842
451 918 455 6 1 38 -6 70 -14z m3412 -187 c-3 -8 -6 -5 -6 6 -1 11 2 17 5 13
3 -3 4 -12 1 -19z m1313 -302 c0 -3 -4 -8 -10 -11 -5 -3 -10 -1 -10 4 0 6 5
11 10 11 6 0 10 -2 10 -4z m-1495 -306 c-3 -5 -12 -10 -18 -10 -7 0 -6 4 3 10
19 12 23 12 15 0z m-5584 -40 c79 -44 139 -61 236 -68 76 -6 88 -10 104 -32
40 -57 37 -63 -63 -108 -51 -23 -97 -42 -102 -42 -5 0 -30 10 -55 23 -37 18
-63 22 -131 22 l-85 -1 -402 -202 c-245 -123 -418 -216 -442 -237 -21 -19 -50
-61 -65 -95 -25 -56 -35 -66 -139 -139 -61 -44 -115 -77 -119 -75 -5 3 -8 39
-8 81 0 187 90 355 243 451 77 48 792 408 862 433 70 26 104 23 166 -11z
m5009 26 c0 -2 -8 -10 -17 -17 -16 -13 -17 -12 -4 4 13 16 21 21 21 13z
m-3290 -55 c0 -6 -4 -12 -8 -15 -5 -3 -9 1 -9 9 0 8 4 15 9 15 4 0 8 -4 8 -9z
m121 -203 c-3 -24 -13 -31 -84 -59 -135 -52 -153 -51 -430 22 -52 14 -42 31
24 45 30 6 101 21 159 34 58 12 155 32 215 45 l110 22 5 -41 c3 -22 3 -53 1
-68z m229 97 c0 -3 -13 -11 -30 -20 -36 -19 -62 -20 -38 -1 10 7 15 15 13 18
-3 3 8 5 25 6 16 0 30 -1 30 -3z m-1960 -106 l44 -20 -59 -33 c-44 -24 -65
-43 -82 -76 -22 -42 -70 -80 -315 -250 l-56 -39 -26 34 c-15 19 -48 47 -74 62
-39 24 -58 28 -117 28 -85 -1 -100 -8 -280 -139 -71 -51 -131 -93 -133 -91 -9
8 42 87 70 110 34 27 699 370 798 411 72 31 167 32 230 3z m6565 -19 c3 -6 -1
-7 -9 -4 -18 7 -21 14 -7 14 6 0 13 -4 16 -10z m-4835 -60 c0 -38 -1 -40 -32
-40 -17 0 -40 -7 -50 -17 -10 -9 -18 -11 -18 -5 0 5 -18 13 -40 17 -48 8 -52
21 -7 29 17 3 55 17 82 30 28 14 53 25 58 25 4 1 7 -17 7 -39z m-1725 -4 c-16
-14 -43 -32 -59 -42 l-29 -17 16 24 c16 23 71 58 92 59 6 0 -3 -11 -20 -24z
m5138 13 c-6 -6 -9 -19 -6 -28 4 -13 3 -14 -5 -1 -10 14 1 40 16 40 3 0 1 -5
-5 -11z m-4449 -69 c14 -5 26 -15 26 -22 0 -44 116 -128 175 -128 23 0 72 -36
62 -46 -2 -3 -17 0 -33 7 -16 6 -69 14 -119 17 l-89 7 -27 70 c-14 39 -30 78
-34 88 -8 19 2 21 39 7z m-341 -30 c4 -17 -4 -25 -46 -44 -29 -13 -91 -42
-140 -65 -48 -23 -90 -41 -94 -41 -11 0 150 113 202 142 60 33 71 34 78 8z
m36 -103 c20 -57 21 -69 10 -113 -26 -107 -105 -224 -199 -296 -38 -28 -328
-178 -346 -178 -6 0 -26 21 -44 48 -18 26 -49 68 -67 94 l-33 46 122 62 c68
34 128 67 133 72 10 10 -140 -62 -219 -104 l-39 -21 -19 23 c-10 12 -18 25
-18 29 0 4 77 63 171 131 112 80 185 126 211 132 22 5 53 15 69 23 39 20 42
19 34 -12 -8 -36 -48 -96 -88 -135 l-32 -31 35 25 c40 28 100 121 100 154 0
17 18 30 93 67 50 25 95 46 98 46 3 1 15 -28 28 -62z m501 -68 c25 -5 57 -14
71 -20 29 -12 61 -72 84 -159 15 -55 21 -201 9 -213 -3 -3 -20 15 -38 41 -39
59 -105 109 -161 123 l-43 11 -41 109 c-23 60 -41 111 -41 114 0 14 81 11 160
-6z m4800 -23 c0 -2 -8 -10 -17 -17 -16 -13 -17 -12 -4 4 13 16 21 21 21 13z
m-5255 -33 c5 -21 1 -32 -21 -52 l-27 -25 7 25 c3 13 9 36 12 52 8 34 20 35
29 0z m-1165 -21 c0 -9 -25 -31 -73 -64 -20 -14 -34 -28 -29 -33 4 -5 2 -6 -3
-2 -10 5 -162 -103 -177 -127 -4 -6 -8 -7 -8 -2 0 5 -8 2 -18 -7 -10 -9 -70
-52 -132 -96 -63 -44 -119 -83 -125 -88 -5 -5 -36 -25 -68 -46 -33 -22 -55
-43 -51 -49 4 -7 2 -8 -5 -4 -11 7 -68 -26 -83 -49 -4 -5 -8 -6 -8 -2 0 4 -9
3 -21 -3 -18 -10 -20 -9 -17 7 2 10 9 17 14 16 5 -1 21 8 34 19 14 11 18 16
10 12 -8 -4 -11 -3 -7 1 4 5 14 10 21 11 8 1 42 24 77 51 35 27 87 64 116 83
28 19 48 40 45 45 -3 6 -2 7 3 3 4 -4 29 7 54 26 137 99 436 305 444 306 4 0
7 -3 7 -8z m255 -51 c-6 -5 -25 10 -25 20 0 5 6 4 14 -3 8 -7 12 -15 11 -17z
m971 -92 l40 -110 -25 -52 c-42 -87 -35 -158 33 -357 31 -90 56 -165 56 -167
0 -6 -192 -135 -195 -131 -2 2 -27 67 -54 143 -27 77 -50 135 -50 128 -1 -7
19 -69 44 -140 25 -70 45 -132 45 -138 0 -12 -108 -91 -114 -84 -8 10 -232
326 -269 379 -23 33 -65 93 -94 134 l-52 74 152 77 c159 81 195 102 239 143
l26 24 -15 -43 c-8 -24 -16 -89 -18 -144 l-4 -100 9 95 c9 104 28 170 68 240
29 51 122 153 131 144 3 -3 24 -55 47 -115z m-1576 7 c0 -2 -8 -10 -17 -17
-16 -13 -17 -12 -4 4 13 16 21 21 21 13z m1981 -47 c48 -24 112 -98 129 -148
11 -35 11 -46 -5 -88 -42 -114 -116 -196 -284 -312 -58 -40 -109 -75 -115 -77
-6 -2 -36 68 -70 166 -54 159 -58 176 -54 238 5 64 23 122 38 122 4 0 15 -20
25 -45 43 -113 179 -138 255 -47 35 42 40 101 15 172 -8 23 -15 45 -15 47 0 7
40 -7 81 -28z m-1240 -46 c13 -16 12 -17 -3 -4 -10 7 -18 15 -18 17 0 8 8 3
21 -13z m-4433 -1724 c-30 -41 -32 -122 -3 -164 20 -30 20 -51 25 -2520 l5
-2490 24 -60 c49 -122 123 -205 233 -260 l71 -35 -637 0 -636 0 0 3580 c0
2857 3 3580 13 3580 6 0 201 1 433 3 l420 2 35 29 34 29 3 -832 2 -832 -22
-30z m6157 1341 c47 -140 102 -300 122 -355 82 -234 44 -436 -112 -592 -35
-35 -69 -63 -77 -63 -11 0 -88 186 -88 213 0 5 13 25 30 45 39 50 60 112 60
183 0 46 -16 104 -79 288 l-80 231 45 87 c24 49 52 123 61 165 10 43 21 72 24
65 4 -7 46 -127 94 -267z m6042 244 c-3 -3 -12 -4 -19 -1 -8 3 -5 6 6 6 11 1
17 -2 13 -5z m-9014 -115 c-36 -55 -45 -160 -18 -220 10 -22 16 -41 14 -43 -6
-6 -584 -275 -653 -303 -51 -22 -64 -24 -96 -14 -100 30 -132 157 -54 222 12
10 816 395 832 398 1 1 -10 -18 -25 -40z m-713 -7 c87 -30 133 -57 191 -110
l54 -49 -60 -30 c-33 -17 -83 -41 -112 -53 l-52 -22 -48 23 c-40 20 -63 24
-138 24 l-90 0 -401 -202 c-279 -141 -412 -214 -438 -239 -38 -37 -86 -124
-86 -156 0 -10 -10 -24 -22 -32 -44 -28 -210 -98 -216 -91 -13 13 -4 142 13
201 33 114 103 218 195 286 19 14 226 123 460 241 295 149 442 218 480 225 75
15 204 7 270 -16z m8607 12 c-3 -3 -12 -4 -19 -1 -8 3 -5 6 6 6 11 1 17 -2 13
-5z m-7886 -61 c-12 -20 -14 -14 -5 12 4 9 9 14 11 11 3 -2 0 -13 -6 -23z
m1236 -156 c53 -27 90 -62 75 -71 -5 -3 -21 4 -36 15 -14 11 -31 17 -38 13 -7
-4 -10 -3 -5 1 12 14 -52 35 -109 35 -49 0 -100 -19 -141 -52 -16 -13 -17 -32
-1 -22 7 4 8 3 4 -4 -4 -6 -13 -9 -20 -6 -15 6 -66 -90 -66 -124 0 -11 -4 -24
-10 -27 -6 -4 -10 6 -10 22 0 83 55 175 128 216 64 35 163 37 229 4z m1568
-214 c80 -236 88 -283 60 -364 -9 -23 -27 -58 -41 -77 l-26 -34 -19 31 c-51
85 -198 80 -244 -8 -8 -17 -15 -36 -15 -43 1 -7 7 1 14 17 35 79 128 109 196
63 40 -27 17 30 345 -852 102 -274 185 -512 185 -530 0 -72 -75 -135 -147
-121 -72 13 -78 25 -278 555 -259 685 -257 681 -261 677 -2 -2 5 -29 15 -60
l20 -57 -22 0 c-42 0 -148 30 -200 56 -151 76 -216 158 -291 366 l-34 96 95
67 c52 37 98 64 102 59 5 -5 25 -60 46 -122 46 -139 83 -196 155 -239 30 -18
58 -33 62 -33 16 0 -5 30 -25 36 -35 11 -83 52 -109 92 -23 35 -108 261 -108
286 0 6 40 38 88 70 162 111 270 196 313 247 23 27 43 48 45 46 2 -2 37 -103
79 -224z m-3565 165 l45 -19 -50 -25 c-64 -33 -84 -51 -101 -91 -32 -74 -1
-158 71 -193 51 -25 78 -25 134 0 24 11 47 20 51 20 18 0 -23 -91 -62 -137
l-40 -48 46 48 c27 29 53 69 63 100 l18 50 113 54 c62 29 114 53 117 53 3 0 5
-31 5 -68 0 -141 -55 -268 -161 -374 -66 -65 -80 -73 -496 -281 -474 -237
-492 -243 -645 -235 -101 6 -178 30 -246 76 -48 32 -112 89 -112 100 0 4 40
28 90 52 49 24 88 45 86 47 -3 3 -414 -185 -931 -427 -289 -135 -301 -139
-351 -114 -77 39 -103 125 -57 190 24 33 17 30 398 209 149 70 326 154 394
186 68 33 125 59 126 59 2 0 88 41 191 91 207 100 270 117 319 85 34 -22 58
-61 67 -110 l7 -41 -3 47 c-6 90 -89 152 -176 133 -30 -7 -32 -6 -25 16 15 48
46 99 78 130 34 33 767 408 847 434 54 17 127 11 190 -17z m841 -50 c-11 -11
-13 -10 -7 0 4 7 2 21 -5 30 -12 15 -11 15 6 0 16 -15 17 -20 6 -30z m261
-434 c526 -735 517 -723 537 -719 10 2 18 -3 18 -11 0 -10 -4 -11 -14 -3 -29
24 -10 -9 40 -71 63 -79 118 -110 194 -110 30 0 69 7 88 15 38 15 731 500 778
544 76 70 95 195 45 285 -34 59 -34 60 -4 79 l24 16 32 -92 c46 -129 81 -195
137 -257 87 -97 206 -158 345 -175 49 -6 58 -11 66 -34 5 -14 62 -168 126
-341 l116 -316 -49 -53 c-97 -105 -152 -247 -149 -386 1 -69 1 -68 9 27 12
147 63 260 157 351 l40 39 20 -54 c11 -29 30 -81 42 -116 l23 -63 -24 -51
c-18 -39 -24 -68 -24 -122 0 -65 13 -107 140 -481 153 -449 161 -466 255 -523
l55 -32 42 -126 42 -126 -46 7 c-188 28 -341 139 -413 300 -15 33 -76 201
-135 373 -59 172 -110 311 -112 309 -6 -6 216 -660 243 -716 15 -29 55 -84 90
-121 80 -84 173 -134 296 -158 l86 -17 15 -45 c8 -25 61 -178 117 -340 56
-162 107 -309 113 -327 10 -30 7 -35 -44 -90 -89 -97 -136 -209 -143 -347 l-5
-81 10 80 c11 91 44 192 81 250 38 59 110 137 118 128 4 -4 19 -44 35 -88 15
-44 37 -92 47 -107 10 -15 14 -29 9 -32 -5 -3 -19 -27 -32 -53 -17 -36 -22
-65 -22 -118 0 -63 14 -109 132 -459 73 -214 142 -409 153 -433 26 -55 96
-117 154 -137 24 -8 44 -14 44 -13 0 1 -4 17 -9 34 -28 98 69 194 163 163 66
-21 76 -42 234 -500 83 -239 180 -520 216 -623 l65 -188 -135 3 -136 3 -57
160 c-32 88 -115 324 -186 524 -71 200 -131 359 -132 355 -2 -5 10 -46 26 -92
l29 -82 -33 0 c-59 0 -138 21 -214 57 -85 41 -181 130 -222 208 -14 28 -73
184 -130 347 -57 163 -105 295 -107 293 -3 -3 67 -226 96 -302 3 -10 -654 -13
-3267 -13 l-3271 0 0 1963 0 1964 148 70 c81 39 258 123 394 188 l247 117 42
-41 c55 -54 123 -97 196 -123 81 -30 248 -37 329 -13 49 14 360 166 804 392
158 80 269 206 311 353 7 25 15 87 18 138 l6 94 165 79 c91 43 169 77 174 75
5 -1 157 -209 338 -462z m1656 -89 c-3 -3 -9 2 -12 12 -6 14 -5 15 5 6 7 -7
10 -15 7 -18z m-1467 -122 c13 -16 12 -17 -3 -4 -10 7 -18 15 -18 17 0 8 8 3
21 -13z m399 -563 c6 -11 8 -20 6 -20 -3 0 -10 9 -16 20 -6 11 -8 20 -6 20 3
0 10 -9 16 -20z m430 6 c0 -2 -8 -10 -17 -17 -16 -13 -17 -12 -4 4 13 16 21
21 21 13z m-390 -61 c7 -9 8 -15 2 -15 -5 0 -12 7 -16 15 -3 8 -4 15 -2 15 2
0 9 -7 16 -15z m225 -55 c-3 -5 -12 -10 -18 -10 -7 0 -6 4 3 10 19 12 23 12
15 0z m2146 -236 c134 -39 267 -150 323 -269 15 -31 90 -242 168 -468 121
-357 140 -423 145 -492 8 -128 -27 -243 -106 -352 -31 -43 -130 -128 -139
-119 -2 3 -21 53 -42 112 l-38 106 34 45 c45 59 68 140 61 212 -7 67 -264 811
-302 877 -31 53 -103 108 -162 125 -40 11 -43 15 -69 83 -15 39 -33 86 -40
105 -8 18 -14 37 -14 42 0 15 123 10 181 -7z m-20 -250 c44 -22 88 -64 113
-108 31 -53 283 -802 292 -865 8 -61 -16 -148 -52 -191 -31 -36 -34 -34 -59
35 -23 63 -40 83 -92 107 -44 19 -74 17 -126 -9 -29 -15 -67 -68 -67 -93 1 -8
7 -1 15 15 30 64 62 85 129 85 91 0 80 23 337 -715 148 -426 229 -673 229
-699 0 -53 -38 -102 -90 -116 -55 -15 -120 13 -142 61 -9 19 -103 277 -208
574 -106 297 -203 572 -217 612 -18 49 -30 70 -40 66 -18 -7 -78 40 -108 85
-24 37 -262 707 -297 837 -19 71 -16 116 11 188 15 38 26 34 46 -18 24 -65 73
-99 140 -99 33 0 62 6 79 17 61 41 83 125 51 200 -8 20 -15 41 -15 47 0 12 28
6 71 -16z m894 -2243 c110 -39 211 -122 273 -224 27 -46 281 -766 318 -902 18
-67 18 -187 -1 -260 -23 -87 -62 -152 -138 -230 -79 -81 -64 -90 -122 74 l-33
94 28 39 c35 48 54 123 48 192 -6 69 -260 809 -302 878 -36 59 -108 113 -173
129 -35 9 -44 17 -49 38 -5 23 -44 143 -61 188 -6 14 3 15 73 11 43 -3 106
-15 139 -27z m-84 -226 c58 -20 112 -65 144 -119 22 -37 285 -800 285 -826 0
-6 -98 -10 -284 -10 l-283 0 -108 308 c-118 337 -130 392 -101 479 27 79 34
84 88 67 80 -27 165 16 184 92 7 28 15 29 75 9z m5567 -1927 c7 -7 12 -24 12
-38 0 -58 -57 -84 -96 -45 -28 28 -30 51 -7 77 18 20 73 24 91 6z m-2684 -39
c59 -46 6 -129 -61 -97 -24 11 -28 20 -28 53 0 32 5 42 25 52 33 17 33 17 64
-8z m-750 -237 c2 -4 -5 -9 -17 -9 -17 -2 -19 0 -7 7 18 12 18 12 24 2z m2731
-92 c3 -5 -1 -10 -10 -10 -9 0 -13 5 -10 10 3 6 8 10 10 10 2 0 7 -4 10 -10z
m-15102 -117 c-7 -2 -21 -2 -30 0 -10 3 -4 5 12 5 17 0 24 -2 18 -5z m11034
-60 c13 -69 -8 -123 -59 -149 -42 -22 -111 -14 -143 16 -20 19 -75 138 -75
163 0 4 61 7 135 7 l134 0 8 -37z"/>
<path d="M8122 15390 c0 -19 2 -27 5 -17 2 9 2 25 0 35 -3 9 -5 1 -5 -18z"/>
<path d="M8873 13290 c0 -36 2 -50 4 -32 2 17 2 47 0 65 -2 17 -4 3 -4 -33z"/>
<path d="M8881 13194 c0 -11 3 -14 6 -6 3 7 2 16 -1 19 -3 4 -6 -2 -5 -13z"/>
<path d="M8600 10776 c0 -2 80 -66 178 -142 203 -158 513 -405 717 -572 173
-142 165 -136 165 -129 0 7 -248 222 -395 343 -252 207 -665 517 -665 500z"/>
<path d="M9731 10764 c0 -11 3 -14 6 -6 3 7 2 16 -1 19 -3 4 -6 -2 -5 -13z"/>
<path d="M8680 9831 c-11 -8 54 -11 221 -11 130 0 298 -2 375 -5 106 -3 128
-2 94 6 -65 14 -671 23 -690 10z"/>
<path d="M13740 13576 c-128 -24 -224 -60 -313 -119 -150 -100 -256 -237 -292
-377 -21 -82 -17 -239 7 -287 15 -29 15 -37 1 -80 -24 -79 -14 -145 41 -254
69 -139 101 -168 172 -154 19 3 34 7 34 9 0 2 -9 25 -21 51 -21 48 -21 97 2
185 9 36 56 87 116 129 31 21 34 21 63 6 42 -22 122 -30 148 -16 24 13 29 40
11 58 -8 8 2 14 32 24 29 9 49 24 59 42 14 25 13 30 -2 57 -16 28 -16 29 5 42
70 44 330 143 347 133 4 -3 28 -28 52 -57 23 -29 38 -49 32 -45 -6 3 -44 -18
-85 -48 -41 -30 -91 -67 -112 -82 -21 -16 -59 -45 -85 -66 -49 -39 -58 -45
-84 -62 -9 -5 -52 -37 -96 -70 -45 -33 -96 -71 -114 -83 -29 -21 -30 -23 -8
-17 14 4 22 4 18 0 -4 -4 -18 -9 -30 -10 -27 -3 -214 -141 -211 -155 2 -5 -4
-7 -13 -3 -14 5 -14 3 -3 -15 7 -11 17 -19 21 -16 4 3 5 -1 3 -9 -3 -7 5 -25
17 -39 13 -14 24 -31 26 -37 1 -6 17 -35 35 -64 19 -29 46 -71 60 -94 l27 -42
140 84 c88 53 142 80 144 72 30 -103 52 -117 117 -71 49 34 44 42 -10 15 -22
-12 -45 -21 -50 -21 -14 0 -38 113 -24 117 15 5 136 85 151 100 7 7 17 13 21
13 14 0 149 144 216 230 36 47 78 100 93 119 15 19 30 38 33 43 4 6 23 1 45
-10 40 -20 114 -44 114 -36 0 2 -20 36 -45 74 l-45 71 35 46 c20 26 34 52 31
58 -5 13 -1 14 71 18 28 2 50 -1 47 -5 -3 -4 0 -8 7 -8 13 0 75 -61 99 -98
l15 -22 50 23 c60 28 117 85 145 143 24 52 45 133 36 141 -3 4 -23 -1 -42 -11
-20 -9 -38 -16 -39 -14 -2 2 1 27 7 57 6 37 6 80 -1 134 -6 44 -11 85 -11 90
0 5 -29 -20 -64 -55 -50 -51 -78 -70 -128 -88 -73 -27 -125 -62 -140 -96 -11
-23 -14 -19 -62 73 -56 107 -105 155 -173 168 -26 5 -52 21 -83 52 -105 107
-227 160 -386 168 -61 2 -127 -1 -174 -9z m440 -865 c19 -15 41 -39 47 -52 16
-30 17 -88 2 -126 -13 -36 -58 -83 -78 -83 -14 0 -14 -1 -1 -10 10 -6 -8 -8
-55 -4 -77 5 -106 21 -142 74 -29 42 -30 100 -3 155 41 85 153 108 230 46z
m-442 -308 c79 -52 92 -162 27 -236 -30 -33 -63 -47 -116 -47 -48 0 -85 18
-121 58 -23 27 -26 37 -25 95 2 46 7 71 20 84 9 11 14 23 10 28 -5 4 -2 5 5 1
6 -4 12 -3 12 2 0 15 64 41 105 41 28 1 54 -7 83 -26z"/>
<path d="M14044 12686 c-38 -17 -74 -61 -74 -92 0 -21 5 -18 48 25 28 28 62
52 80 56 18 3 30 11 26 16 -8 13 -44 11 -80 -5z"/>
<path d="M14021 12571 c-40 -40 10 -104 58 -74 23 15 27 64 5 80 -24 18 -41
16 -63 -6z"/>
<path d="M13615 12386 c-39 -17 -72 -54 -80 -88 -10 -38 -1 -35 41 11 19 22
55 48 80 57 31 12 41 20 32 25 -18 12 -38 10 -73 -5z"/>
<path d="M13587 12282 c-46 -51 19 -115 67 -66 30 30 9 84 -33 84 -10 0 -25
-8 -34 -18z"/>
<path d="M13970 12883 c-23 -8 -80 -65 -96 -95 -15 -29 -19 -78 -6 -78 8 0
162 165 162 174 0 7 -39 6 -60 -1z"/>
<path d="M13518 12530 c-65 -19 -125 -76 -104 -97 3 -3 32 6 63 20 32 14 77
31 101 38 43 12 55 32 26 43 -20 8 -52 6 -86 -4z"/>
<path d="M14206 12152 c8 -66 1 -93 -37 -137 -24 -27 -27 -35 -14 -35 25 0 72
52 83 93 12 42 0 98 -24 118 -13 11 -14 7 -8 -39z"/>
<path d="M11411 11763 c-41 -336 -127 -1221 -118 -1229 6 -6 42 306 87 751 43
429 55 575 48 575 -3 0 -10 -44 -17 -97z"/>
<path d="M11899 11142 c-130 -133 -207 -214 -294 -311 -24 -27 -26 -31 -8 -22
11 6 102 95 201 198 207 217 257 272 250 278 -2 3 -69 -62 -149 -143z"/>
<path d="M8722 14710 c0 -19 2 -27 5 -17 2 9 2 25 0 35 -3 9 -5 1 -5 -18z"/>
<path d="M3165 14371 c-43 -26 -1391 -1379 -1387 -1392 1 -6 -1 -8 -6 -5 -9 5
-81 -62 -82 -76 0 -5 -2 -7 -4 -5 -8 4 -58 -48 -72 -75 -12 -23 -14 -199 -14
-1108 0 -710 3 -1079 10 -1075 5 3 7 0 4 -9 -7 -18 144 -179 159 -169 5 3 7 2
4 -4 -8 -13 147 -166 158 -156 4 4 5 3 2 -3 -8 -14 146 -167 158 -157 4 4 5 3
2 -3 -8 -13 146 -167 157 -157 4 4 6 2 4 -4 -4 -15 875 -899 914 -919 23 -12
196 -14 1103 -14 771 0 1083 3 1098 11 35 18 137 121 130 132 -3 6 -2 7 4 4
13 -8 166 147 156 158 -4 4 -3 5 3 2 14 -8 167 146 157 158 -4 4 -3 5 3 2 12
-7 168 145 159 156 -3 4 -2 5 2 2 10 -8 33 16 26 28 -3 5 -2 7 4 4 13 -8 116
97 106 108 -5 4 -3 5 3 2 14 -8 57 36 47 48 -5 4 -3 5 3 2 12 -7 137 115 129
126 -3 4 -2 5 2 2 10 -8 33 16 26 28 -3 5 -2 7 4 4 11 -7 136 116 128 126 -3
4 -2 5 2 2 10 -8 33 16 26 28 -3 5 -2 7 4 4 11 -7 136 116 128 126 -3 4 -2 5
2 2 10 -8 33 16 26 28 -3 5 -2 7 4 4 11 -7 136 116 128 126 -3 4 -2 5 2 2 10
-8 33 16 26 28 -3 5 -2 7 4 4 15 -9 104 88 119 131 11 30 13 241 14 1087 0
660 -4 1063 -10 1085 -11 40 -72 106 -89 96 -7 -5 -8 -1 -4 10 5 14 3 16 -11
11 -10 -4 -15 -3 -11 3 8 13 -121 144 -134 136 -7 -5 -8 -1 -4 10 5 13 3 16
-10 11 -9 -3 -16 -3 -15 1 4 14 -23 52 -33 47 -5 -4 -8 -2 -7 3 2 5 -21 34
-49 65 -29 31 -53 53 -53 49 0 -4 -4 -1 -9 6 -13 21 -151 161 -151 154 0 -4
-4 -1 -9 6 -13 21 -151 161 -151 154 0 -4 -4 -1 -9 6 -10 17 -151 162 -151
156 0 -2 -17 15 -37 37 -21 23 -74 76 -117 118 -43 42 -94 91 -112 110 -18 18
-37 30 -43 27 -7 -5 -8 -1 -4 10 5 14 3 16 -11 11 -10 -4 -15 -3 -11 3 8 13
-121 144 -134 136 -7 -5 -8 -1 -4 10 5 14 3 16 -11 11 -10 -4 -15 -3 -11 3 8
13 -155 175 -181 179 -10 2 -503 5 -1094 7 -1035 4 -1076 3 -1105 -15z m755
-1026 l0 -35 -127 -1 c-71 -1 -131 -1 -135 0 -5 0 -8 -28 -8 -63 0 -49 4 -65
16 -70 9 -3 64 -6 123 -6 l108 0 -5 -26 c-4 -21 -2 -25 9 -19 12 8 12 6 0 -8
-11 -14 -33 -17 -132 -17 l-119 0 0 -70 0 -70 140 0 140 0 0 -37 0 -38 -176 2
c-97 1 -178 4 -181 7 -3 3 -6 421 -3 484 0 1 79 2 175 2 l175 0 0 -35z m180
-101 c0 -11 5 -11 25 -2 14 6 25 14 25 17 0 4 18 7 40 6 22 0 40 -3 40 -7 1
-69 1 -68 -31 -68 -22 0 -41 -10 -66 -35 l-34 -34 3 -116 c3 -125 8 -115 -54
-118 -23 -1 -23 -1 -26 178 -1 99 -1 184 2 190 6 16 76 6 76 -11z m276 0 c-6
-16 -4 -17 18 -8 9 3 13 11 9 17 -3 5 -1 7 5 3 6 -3 23 -1 38 4 16 6 39 9 51
5 20 -5 22 -10 18 -37 -8 -43 -12 -47 -40 -42 -24 4 -81 -23 -71 -34 3 -2 -2
-11 -10 -19 -12 -13 -15 -38 -12 -129 2 -63 1 -114 -2 -115 -3 0 -22 -2 -42
-4 l-37 -3 -3 190 c-2 104 -2 191 -1 192 1 1 20 0 43 -2 30 -3 40 -8 36 -18z
m469 -4 c17 -11 40 -35 50 -54 10 -19 21 -33 25 -31 3 2 7 -21 8 -51 4 -77
-20 -146 -63 -175 -18 -13 -32 -26 -30 -29 2 -3 -4 -6 -13 -7 -9 0 -42 -3 -72
-5 -129 -11 -216 71 -211 197 6 121 92 191 220 179 30 -2 69 -13 86 -24z m237
7 c-2 -15 1 -15 22 -6 14 7 24 15 22 18 -2 3 18 7 45 8 l49 3 0 -40 c0 -38 -1
-40 -32 -40 -20 0 -45 -10 -63 -24 -30 -24 -30 -24 -35 -151 l-5 -128 -38 -1
c-30 -1 -37 2 -38 19 0 22 0 360 1 360 69 0 75 -1 72 -18z m-399 -709 c20 0
25 -3 15 -9 -13 -9 -11 -9 35 -13 6 -1 18 -7 26 -14 7 -7 20 -11 28 -8 8 3 11
1 8 -4 -3 -6 -2 -10 4 -10 5 0 37 -22 69 -49 33 -28 63 -47 67 -43 5 4 5 2 2
-4 -3 -6 1 -20 11 -30 82 -94 135 -238 152 -413 29 -314 -62 -589 -241 -724
-47 -36 -119 -73 -166 -87 -103 -30 -300 -29 -378 1 -104 41 -140 64 -211 134
-42 41 -80 72 -85 69 -5 -3 -6 2 -3 10 3 9 -3 30 -14 48 -30 49 -82 204 -82
244 0 19 -3 34 -7 34 -12 0 -13 144 -3 267 7 73 20 142 37 195 15 46 27 89 26
95 0 7 3 11 7 8 11 -7 41 55 33 68 -3 6 -1 7 5 3 6 -4 17 5 26 21 29 56 162
164 219 178 16 4 24 12 20 18 -4 7 0 8 12 4 9 -4 23 -3 29 2 23 19 53 20 359
9z m-1319 -7 c147 -1 158 -2 151 -18 -4 -10 -8 -23 -8 -30 0 -7 -3 -10 -6 -8
-4 2 -42 -46 -86 -107 -129 -179 -144 -202 -138 -212 4 -5 1 -6 -7 -1 -9 6
-10 1 -5 -16 5 -18 4 -20 -4 -9 -5 8 -12 12 -14 10 -25 -31 -71 -107 -69 -115
2 -5 0 -7 -4 -3 -6 6 -83 -94 -139 -179 -5 -9 -20 -27 -32 -41 -13 -14 -23
-29 -23 -35 0 -5 -7 -15 -15 -21 -8 -6 -17 -21 -20 -33 l-4 -23 170 0 169 0 0
130 c0 72 3 130 8 130 22 1 270 1 287 1 19 -1 20 -8 20 -129 l0 -127 115 -3
115 -3 -3 -134 c-3 -131 -4 -135 -25 -136 -12 0 -62 -1 -112 -2 l-90 -2 -1
-145 -1 -145 -34 1 c-19 1 -91 2 -161 3 l-128 1 0 139 c0 121 -2 140 -17 145
-9 4 -175 6 -369 6 -195 -1 -357 1 -361 3 -5 3 -6 57 -3 120 l5 115 105 139
c58 76 105 143 105 150 0 7 18 32 41 55 39 42 124 152 124 162 0 3 11 17 25
32 13 14 22 31 19 36 -3 4 -1 7 4 6 6 -2 10 0 11 5 1 4 10 16 21 27 12 12 18
26 14 32 -5 7 -3 8 6 3 10 -6 12 -4 7 9 -4 9 -3 15 2 11 5 -3 37 32 70 77 33
46 68 91 77 100 9 9 14 21 10 26 -3 5 5 7 17 6 12 -1 93 -3 181 -3z m2421
-701 l0 -701 -160 0 c-88 0 -164 0 -170 0 -7 1 -10 196 -10 563 l0 563 -132 3
-133 3 0 24 c-1 32 -1 233 0 243 0 4 136 6 302 5 l303 -2 0 -701z m-615 -1030
c17 -33 3 -60 -30 -60 -36 0 -56 30 -40 60 14 26 56 26 70 0z m968 -194 l-3
-201 -30 0 c-19 0 -29 5 -27 13 2 9 -6 8 -30 -4 -49 -25 -130 -15 -168 21 -61
58 -65 169 -9 222 46 44 125 56 180 27 30 -15 31 -15 29 8 -6 71 0 117 18 120
42 10 43 5 40 -206z m-1897 142 c1 -35 1 -67 0 -71 -1 -4 9 -2 21 4 21 12 152
30 143 20 -3 -2 7 -18 22 -33 26 -27 28 -37 33 -126 7 -134 5 -142 -31 -142
l-29 0 -1 88 c-1 48 -1 91 0 96 4 20 -43 56 -73 56 -35 0 -77 -35 -69 -58 4
-10 2 -13 -6 -8 -6 4 -11 4 -10 -1 1 -4 1 -45 0 -90 l-1 -83 -30 0 -29 0 -3
205 -3 205 33 0 32 0 1 -62z m-1690 -65 c-1 -56 1 -118 4 -137 10 -49 49 -86
91 -86 90 0 116 49 113 214 l-2 111 32 3 31 3 0 -129 c0 -208 -25 -251 -151
-260 -56 -4 -73 -1 -106 17 -62 35 -67 49 -73 214 -3 82 -3 151 0 153 2 3 17
4 34 2 l29 -3 -2 -102z m1479 46 c0 -27 3 -29 40 -29 38 0 40 -2 40 -30 0 -28
-2 -30 -40 -30 l-40 0 0 -78 c0 -94 14 -122 52 -105 29 13 42 6 46 -24 4 -27
-29 -38 -91 -30 -59 8 -67 25 -67 139 0 98 0 98 -25 98 -21 0 -25 5 -25 30 0
25 4 30 25 30 14 0 25 5 25 11 0 5 -5 7 -12 3 -7 -5 -8 -3 -2 7 8 13 10 18 13
37 0 5 15 7 31 4 25 -4 30 -9 30 -33z m1140 -186 l0 -143 -30 0 -30 0 0 149
c0 147 0 150 23 153 12 2 25 -1 29 -7 4 -5 8 -74 8 -152z m-2200 142 c0 -14 4
-14 32 1 46 24 122 15 156 -20 26 -25 27 -32 30 -146 l4 -120 -31 0 -31 0 0
94 c0 79 -3 97 -21 120 -26 33 -68 34 -106 2 -27 -23 -28 -29 -31 -121 l-4
-96 -30 3 -31 3 1 125 c1 69 2 135 2 148 0 18 6 22 30 22 20 0 30 -5 30 -15z
m502 -8 c34 -28 44 -75 40 -189 l-3 -88 -29 0 c-17 0 -30 4 -30 10 0 6 -9 6
-26 0 -34 -13 -97 -13 -127 1 -14 6 -30 22 -36 36 -37 81 21 133 152 133 41 0
44 5 21 39 -14 20 -22 22 -63 17 -106 -12 -106 -12 -109 10 -7 50 158 74 210
31z m180 18 c10 -4 12 -25 10 -82 -4 -83 4 -147 18 -138 4 3 10 1 12 -4 1 -5
10 -10 18 -11 74 -11 100 29 100 153 l0 87 30 0 30 0 1 -125 c1 -69 2 -135 2
-147 2 -27 -35 -37 -59 -18 -11 10 -17 10 -29 0 -9 -8 -35 -10 -77 -6 -88 8
-97 9 -92 17 2 4 -3 23 -11 43 -10 23 -15 69 -15 136 0 99 0 100 24 100 13 0
30 -2 38 -5z m1108 -17 c51 -35 72 -83 66 -147 -3 -35 -12 -61 -25 -75 -12
-13 -20 -24 -19 -27 2 -2 1 -3 -1 -2 -2 1 -16 -4 -32 -12 -43 -23 -117 -19
-163 9 -28 17 -44 36 -56 69 -16 42 -17 51 -4 94 18 61 33 79 75 97 52 23 120
20 159 -6z m184 16 c9 -3 14 -10 11 -15 -3 -4 7 -2 22 6 41 22 73 19 73 -5 0
-11 0 -23 0 -27 0 -5 -13 -11 -29 -16 -48 -12 -72 -52 -71 -117 3 -119 3 -120
-30 -120 l-30 0 -1 125 c-1 69 -1 134 -1 145 0 11 0 22 1 25 1 7 36 6 55 -1z
m527 -11 c0 -10 2 -26 4 -36 2 -9 0 -15 -5 -12 -5 3 -23 -14 -41 -37 -18 -24
-50 -63 -71 -87 -21 -24 -38 -48 -38 -53 0 -5 33 -9 73 -8 99 2 95 3 89 -25
l-4 -25 -123 0 c-118 0 -123 1 -128 22 -4 12 -1 25 5 29 6 4 7 12 3 19 -5 8
-4 11 2 7 9 -6 58 49 58 65 0 3 4 10 9 15 6 5 6 2 1 -7 -12 -22 -1 -10 39 43
l36 47 -73 0 c-41 0 -76 2 -79 5 -3 3 -3 17 0 30 4 25 5 25 123 25 106 0 119
-2 120 -17z m247 3 c50 -26 77 -67 77 -115 l0 -43 -107 1 c-58 1 -109 -2 -112
-7 -3 -5 2 -18 10 -30 16 -23 87 -48 92 -32 2 5 9 7 16 4 7 -3 19 2 26 11 17
21 33 19 48 -6 9 -14 10 -24 3 -33 -6 -7 -9 -15 -6 -17 2 -3 -4 -6 -13 -7 -9
-1 -34 -4 -55 -8 -51 -8 -121 3 -144 24 -28 25 -53 85 -53 126 0 44 39 109 77
130 36 19 106 20 141 2z"/>
<path d="M4700 13192 c-54 -24 -80 -62 -80 -117 0 -117 137 -161 210 -67 25
31 26 93 4 132 -27 44 -93 70 -134 52z m118 -57 c-3 -3 -9 2 -12 12 -6 14 -5
15 5 6 7 -7 10 -15 7 -18z"/>
<path d="M4460 12261 c0 -7 -4 -10 -9 -7 -27 17 -97 -33 -139 -99 -78 -123
-95 -406 -34 -584 22 -65 84 -138 136 -162 56 -25 186 -24 170 2 -3 5 2 6 10
3 9 -4 26 6 42 23 15 15 23 21 19 13 -8 -13 -7 -13 8 -1 19 15 23 36 5 25 -7
-4 -8 -3 -4 5 4 6 11 9 16 6 4 -3 13 2 20 10 11 13 10 15 -6 10 -13 -4 -12 -2
4 6 20 11 26 24 25 56 -1 7 2 11 6 8 4 -2 14 24 22 58 21 90 18 333 -5 412
-22 74 -56 137 -72 131 -6 -2 -11 2 -10 10 0 9 -17 29 -39 45 -30 21 -56 31
-102 35 -46 5 -63 4 -63 -5z"/>
<path d="M5931 10619 c-28 -26 -47 -72 -32 -77 6 -2 9 -8 5 -13 -9 -15 34 -66
61 -73 58 -15 127 62 106 117 -15 39 -51 67 -86 67 -18 0 -41 -9 -54 -21z"/>
<path d="M3331 10509 c-21 -20 -21 -22 -6 -39 34 -38 138 1 122 44 -10 25 -87
21 -116 -5z"/>
<path d="M4615 10610 c-21 -22 -29 -39 -28 -65 2 -76 95 -118 144 -67 23 26
45 87 27 76 -8 -5 -9 1 -5 16 4 17 -1 30 -19 47 -36 33 -83 31 -119 -7z"/>
<path d="M5594 10617 c-42 -36 -25 -48 67 -46 83 2 85 3 46 47 -27 30 -77 29
-113 -1z"/>
<path d="M10456 10015 c-3 -9 -5 -31 -5 -48 1 -27 3 -24 9 13 8 48 6 61 -4 35z"/>
<path d="M10611 8444 c0 -11 3 -14 6 -6 3 7 2 16 -1 19 -3 4 -6 -2 -5 -13z"/>
<path d="M7974 7704 c-18 -14 -18 -14 6 -3 31 14 36 19 24 19 -6 0 -19 -7 -30
-16z"/>
<path d="M7591 7517 l-343 -172 -72 0 c-56 0 -82 5 -123 26 -29 14 -57 23 -63
19 -5 -3 18 -19 51 -36 52 -24 74 -29 135 -29 l74 1 288 146 c319 163 422 218
407 217 -5 0 -165 -78 -354 -172z"/>
<path d="M7072 7452 l-23 -37 26 28 c14 15 25 32 25 38 0 14 -3 11 -28 -29z"/>
<path d="M11461 6024 c0 -11 3 -14 6 -6 3 7 2 16 -1 19 -3 4 -6 -2 -5 -13z"/>
<path d="M12301 3554 c0 -11 3 -14 6 -6 3 7 2 16 -1 19 -3 4 -6 -2 -5 -13z"/>
<path d="M12356 3370 c4 -14 13 -38 20 -55 11 -24 13 -25 8 -5 -4 14 -13 39
-20 55 -11 24 -13 25 -8 5z"/>
<path d="M16385 11920 c-16 -17 -16 -20 -3 -15 9 4 19 13 22 21 7 19 2 18 -19
-6z"/>
<path d="M3551 4694 c0 -11 3 -14 6 -6 3 7 2 16 -1 19 -3 4 -6 -2 -5 -13z"/>
<path d="M3541 4654 c0 -11 3 -14 6 -6 3 7 2 16 -1 19 -3 4 -6 -2 -5 -13z"/>
<path d="M3023 1740 c0 -36 2 -50 4 -32 2 17 2 47 0 65 -2 17 -4 3 -4 -33z"/>
<path d="M3007 1648 c-7 -28 -34 -59 -77 -91 -32 -23 -4 -10 33 15 30 21 61
72 54 91 -2 7 -7 0 -10 -15z"/>
<path d="M2870 1530 c-8 -5 -10 -10 -5 -10 6 0 17 5 25 10 8 5 11 10 5 10 -5
0 -17 -5 -25 -10z"/>
<path d="M18298 1483 c29 -2 74 -2 100 0 26 2 2 3 -53 3 -55 0 -76 -1 -47 -3z"/>
</g>
</svg>
