<?xml version="1.0" standalone="no"?>
<!DOCTYPE svg PUBLIC "-//W3C//DTD SVG 20010904//EN"
 "http://www.w3.org/TR/2001/REC-SVG-20010904/DTD/svg10.dtd">
<svg version="1.0" xmlns="http://www.w3.org/2000/svg"
 width="2000.000000pt" height="2000.000000pt" viewBox="0 0 2000.000000 2000.000000"
 preserveAspectRatio="xMidYMid meet">

<g transform="translate(0.000000,2000.000000) scale(0.100000,-0.100000)"
fill="#F8F8FF" stroke="none">
<path d="M5056 13898 c-3 -7 -23 -215 -45 -463 -23 -247 -43 -459 -44 -471 -3
-20 7 -21 367 -56 204 -19 372 -34 374 -32 4 2 21 168 18 171 -1 2 -118 14
-260 27 -142 14 -260 26 -262 29 -6 6 16 211 24 218 4 4 88 -2 187 -12 99 -10
197 -18 217 -18 41 -1 41 -2 52 114 l5 51 -220 20 c-120 12 -222 24 -225 27
-7 7 11 195 19 203 3 3 118 -5 256 -18 l250 -23 7 83 c3 45 4 85 1 88 -3 3
-144 18 -314 34 -169 16 -329 32 -356 35 -34 4 -48 2 -51 -7z"/>
<path d="M5939 13343 c-30 -325 -42 -480 -34 -485 5 -3 55 -9 111 -13 l100 -7
11 126 c6 70 13 129 16 133 3 3 51 2 105 -2 l99 -7 78 -140 c49 -87 86 -143
99 -148 12 -4 66 -11 120 -15 81 -6 98 -5 93 6 -3 8 -43 81 -90 164 l-86 150
48 23 c108 51 171 149 179 278 6 101 -17 170 -81 241 -91 99 -165 123 -483
153 -117 11 -218 20 -226 20 -11 0 -23 -95 -59 -477z m382 266 c113 -11 160
-27 202 -67 59 -56 56 -165 -5 -229 -45 -47 -105 -58 -242 -44 -60 6 -112 13
-114 16 -5 5 15 258 24 308 6 31 0 30 135 16z"/>
<path d="M7000 13706 c-1 -12 -20 -228 -44 -481 -24 -253 -43 -461 -42 -462 4
-5 210 -23 214 -18 2 2 10 61 17 130 7 69 14 128 17 130 3 3 45 1 94 -5 49 -5
94 -10 100 -10 6 0 46 -63 89 -141 43 -77 83 -143 89 -144 18 -6 220 -24 224
-20 2 2 -23 50 -56 107 -32 56 -73 129 -91 160 l-32 57 37 16 c66 27 121 81
156 152 28 58 32 75 33 152 0 126 -42 212 -138 276 -80 54 -152 71 -393 94
-121 12 -231 22 -246 24 -23 3 -28 -1 -28 -17z m369 -196 c150 -17 211 -66
211 -171 0 -71 -25 -117 -79 -148 -36 -19 -55 -23 -124 -22 -111 2 -202 14
-201 26 1 6 7 78 13 160 7 83 14 155 16 161 3 11 18 10 164 -6z"/>
<path d="M8358 13599 c-245 -25 -422 -205 -444 -451 -21 -239 129 -452 371
-524 92 -28 260 -25 349 5 138 47 257 158 306 288 34 88 39 239 11 331 -73
241 -308 380 -593 351z m216 -212 c61 -28 118 -84 148 -147 33 -68 32 -195 -3
-270 -36 -76 -71 -115 -134 -145 -140 -69 -311 -27 -394 95 -39 57 -52 99 -52
175 -1 78 14 132 54 191 82 123 242 165 381 101z"/>
<path d="M9186 13478 c-7 -48 -86 -893 -86 -912 0 -9 32 -16 109 -22 l109 -9
6 55 c3 30 9 90 12 134 l7 79 75 -7 c41 -3 88 -6 103 -6 26 0 35 -12 109 -145
45 -79 89 -146 98 -149 10 -3 63 -8 119 -12 l103 -7 -85 150 c-46 83 -87 157
-90 166 -5 11 3 18 28 26 50 17 118 80 152 142 24 45 30 69 33 139 2 47 -1
104 -7 127 -16 60 -69 132 -124 169 -83 57 -142 72 -355 94 -108 10 -223 22
-254 25 l-57 6 -5 -43z m330 -169 c143 -14 204 -40 234 -100 47 -91 8 -199
-86 -235 -41 -16 -60 -16 -170 -7 -69 6 -127 12 -129 15 -3 2 2 69 10 149 8
79 15 154 15 167 0 12 4 22 8 22 5 0 58 -5 118 -11z"/>
<path d="M13237 13229 c-97 -23 -190 -101 -235 -197 l-27 -57 -3 -363 c-3
-393 0 -428 52 -511 32 -50 100 -109 155 -135 41 -19 69 -22 261 -26 137 -3
214 -9 212 -15 -2 -5 -62 -127 -133 -270 l-130 -260 68 73 c37 40 151 162 253
271 l185 199 620 4 620 3 53 28 c29 15 70 45 92 67 22 22 52 63 67 92 l28 53
3 386 c3 377 2 387 -19 445 -16 43 -39 75 -84 121 -52 51 -72 64 -129 82 -67
21 -81 21 -970 20 -495 -1 -918 -5 -939 -10z m493 -443 c118 -78 111 -266 -12
-336 -34 -19 -57 -25 -108 -25 -82 1 -139 29 -177 87 -24 35 -28 52 -28 109 0
59 4 73 30 110 17 23 50 53 75 67 62 33 161 28 220 -12z m1205 -8 c-4 -230 -3
-228 -29 -228 -13 0 -27 7 -30 16 -3 9 -6 70 -6 135 l0 120 33 -3 c30 -3 32
-5 32 -40z m-840 -74 c47 -30 69 -73 69 -131 0 -57 -17 -90 -68 -127 -36 -27
-130 -29 -170 -3 -65 43 -87 147 -46 215 40 66 149 89 215 46z m377 -2 c33
-19 68 -85 68 -128 0 -16 -9 -48 -20 -72 -15 -34 -29 -47 -66 -63 -52 -24
-115 -20 -146 8 -17 15 -18 12 -18 -55 l0 -72 -30 0 -30 0 0 200 0 200 30 0
c19 0 30 -5 30 -14 0 -11 8 -10 38 6 42 22 96 18 144 -10z m311 9 c24 -10 26
-13 15 -36 -8 -18 -17 -24 -27 -20 -31 13 -80 17 -106 11 -20 -5 -26 -12 -23
-29 2 -18 15 -25 72 -39 78 -19 93 -30 102 -75 5 -27 1 -37 -23 -62 -37 -37
-90 -48 -156 -32 -69 16 -80 26 -61 56 14 22 17 22 44 8 17 -8 49 -13 77 -11
41 3 48 6 51 25 3 22 -10 29 -104 48 -63 12 -92 80 -54 128 35 44 117 56 193
28z m153 -236 c11 -43 -34 -73 -64 -43 -27 27 -6 68 35 68 16 0 24 -7 29 -25z"/>
<path d="M13533 12740 c-89 -54 -83 -199 10 -243 100 -48 207 18 207 126 0 80
-58 137 -140 137 -27 0 -58 -8 -77 -20z"/>
<path d="M13949 12641 c-31 -32 -38 -75 -17 -114 18 -34 39 -46 81 -47 54 0
87 35 87 92 -1 46 -12 68 -47 86 -37 20 -73 14 -104 -17z"/>
<path d="M14319 12641 c-21 -22 -29 -39 -29 -66 0 -81 100 -126 155 -70 19 18
25 35 25 70 0 90 -88 129 -151 66z"/>
<path d="M5234 11978 c-142 -150 -295 -311 -339 -358 -45 -47 -122 -128 -171
-180 -49 -52 -127 -135 -174 -185 -47 -49 -114 -119 -147 -155 l-62 -65 -10
-100 c-6 -54 -9 -100 -8 -101 1 0 252 -24 557 -53 305 -29 555 -53 557 -54 2
-3 -31 -365 -42 -448 l-5 -46 136 -12 c75 -6 138 -10 139 -9 1 2 12 111 25
243 12 132 24 242 26 244 2 2 81 -4 176 -13 95 -9 180 -16 189 -16 13 0 18 21
26 118 6 64 9 118 8 120 -1 1 -86 10 -189 19 l-186 17 1 36 c0 19 8 116 18
215 10 99 16 182 15 184 -4 4 -257 31 -261 27 -1 -1 -11 -98 -22 -215 -12
-118 -22 -215 -23 -217 -2 -1 -165 13 -363 32 -198 18 -370 34 -383 34 -13 0
-22 4 -20 9 2 6 121 135 265 288 288 307 311 331 392 418 31 33 122 130 202
215 80 85 165 176 188 202 l42 46 -28 6 c-15 2 -64 8 -108 11 -44 3 -98 8
-121 11 l-41 6 -259 -274z"/>
<path d="M6967 12090 c-332 -84 -559 -376 -630 -810 -36 -215 -31 -426 14
-605 89 -349 335 -575 673 -616 383 -47 707 172 851 575 66 183 79 273 79 526
0 213 -1 230 -27 325 -70 259 -218 453 -420 549 -110 53 -176 67 -327 72 -111
3 -149 0 -213 -16z m312 -245 c185 -44 312 -181 373 -402 18 -67 21 -105 22
-268 0 -159 -4 -207 -22 -293 -82 -380 -264 -575 -535 -574 -141 1 -253 46
-347 141 -115 115 -170 287 -170 536 0 232 36 409 116 573 116 235 327 342
563 287z"/>
<path d="M9310 11871 c-8 -10 -81 -88 -161 -172 -117 -124 -571 -604 -911
-964 -60 -64 -57 -54 -74 -207 -5 -49 -4 -58 10 -58 52 0 1092 -103 1097 -108
5 -6 -10 -194 -36 -433 l-6 -56 137 -12 c74 -7 137 -11 138 -9 2 2 13 111 25
243 12 132 24 241 26 243 1 2 82 -4 179 -13 96 -9 181 -15 188 -13 9 3 17 44
24 119 6 63 10 115 10 116 -1 1 -86 10 -189 19 l-187 18 1 40 c0 23 8 121 17
219 10 97 15 177 12 178 -3 0 -62 6 -132 12 l-127 13 -5 -46 c-3 -25 -13 -121
-22 -215 -8 -93 -17 -171 -18 -173 -4 -3 -760 69 -765 74 -2 2 44 54 102 116
58 62 303 324 546 583 242 258 439 471 437 472 -2 3 -274 32 -296 33 -3 0 -12
-9 -20 -19z"/>
<path d="M12665 11352 c-27 -5 -70 -47 -107 -105 -21 -32 -46 -56 -77 -72 -84
-43 -167 -149 -229 -290 -16 -38 -33 -80 -37 -93 -3 -12 -41 -48 -82 -80 l-76
-56 29 -13 c50 -21 152 -15 218 12 33 13 61 23 62 22 1 -1 -15 -54 -36 -118
-71 -214 -94 -335 -94 -499 -1 -99 3 -151 11 -165 11 -17 12 -15 7 20 -12 83
26 297 87 495 15 50 24 68 27 53 5 -31 14 -29 34 6 74 132 203 15 158 -144 -7
-25 -30 -65 -52 -90 l-39 -45 15 -77 c9 -43 18 -113 22 -155 l7 -78 91 0 c104
0 202 -18 269 -50 l47 -22 38 28 c88 66 149 124 205 194 59 74 137 217 137
251 0 16 -4 17 -31 7 -46 -16 -122 -3 -190 33 -68 37 -147 117 -218 222 -48
72 -121 199 -121 210 0 6 128 -35 154 -50 8 -4 37 -42 64 -84 86 -132 217
-239 293 -239 32 0 79 41 79 69 0 17 4 19 23 12 13 -5 46 -16 74 -24 l51 -15
-40 57 c-38 55 -40 61 -43 147 -1 49 -10 123 -20 164 -9 41 -23 104 -31 139
-19 83 -63 178 -104 225 -18 20 -63 52 -99 70 -133 67 -408 141 -476 128z"/>
<path d="M12192 10598 c7 -19 35 -21 41 -3 5 11 0 15 -19 15 -16 0 -24 -5 -22
-12z"/>
<path d="M12160 10491 c-14 -27 -13 -46 5 -61 20 -16 21 -14 30 38 5 34 4 42
-9 42 -8 0 -20 -9 -26 -19z"/>
<path d="M13642 9713 c-10 -4 -5 -11 14 -24 21 -13 34 -38 55 -101 15 -46 24
-86 21 -89 -14 -14 -84 -31 -92 -23 -4 5 -17 39 -30 77 -12 37 -23 67 -24 67
-1 0 -36 -11 -76 -25 -85 -29 -90 -30 -90 -12 0 7 34 24 78 38 64 21 76 29 74
45 -8 42 -18 44 -177 32 -83 -6 -158 -11 -167 -11 -10 -1 -18 -4 -18 -7 0 -6
41 -133 45 -137 1 -2 34 8 73 21 66 23 82 24 82 5 0 -4 -31 -18 -70 -30 -38
-13 -70 -28 -70 -33 0 -6 9 -40 20 -74 25 -79 25 -78 -2 -86 -74 -22 -74 -22
-98 51 -13 37 -24 71 -26 74 -2 4 -38 -4 -80 -17 -73 -22 -101 -23 -89 -3 3 5
37 18 76 30 38 11 71 24 74 28 2 4 -6 40 -18 79 -17 57 -26 72 -41 72 -37 0
-241 -63 -316 -97 -61 -28 -66 -40 -7 -17 11 4 20 -12 37 -63 13 -37 24 -71
27 -75 2 -4 34 4 72 17 65 22 81 23 81 4 0 -4 -31 -18 -70 -30 -38 -13 -70
-26 -70 -29 0 -4 11 -39 25 -79 l24 -72 -27 -10 c-73 -28 -75 -27 -100 55 -13
42 -25 76 -26 76 -1 0 -36 -11 -77 -25 -40 -14 -80 -23 -88 -20 -22 9 -3 20
74 45 39 13 73 24 76 26 3 2 -5 35 -18 75 -12 39 -20 75 -17 80 3 5 0 9 -5 9
-17 0 -171 -74 -235 -113 -32 -20 -63 -38 -69 -40 -10 -3 -2 -47 20 -103 4
-11 -7 -14 -49 -14 -49 0 -56 3 -67 26 l-11 26 -33 -21 c-92 -58 -207 -145
-200 -151 4 -4 20 -10 35 -14 24 -5 27 -2 35 31 12 53 35 57 27 5 l-6 -40 53
-6 c118 -15 117 -14 103 -86 l-7 -32 -77 7 c-89 8 -84 13 -95 -92 -5 -46 -11
-63 -22 -63 -11 0 -13 8 -9 38 3 20 8 58 12 83 l6 47 -60 7 c-34 4 -65 4 -71
1 -20 -13 -39 -106 -44 -218 -5 -118 -5 -118 17 -118 13 0 44 -3 69 -6 l45 -6
7 48 c11 84 16 104 27 104 7 0 8 -26 4 -78 l-7 -79 78 -9 78 -9 -3 -45 c-2
-25 -7 -48 -10 -52 -4 -4 -38 -3 -75 2 -38 6 -72 8 -77 5 -4 -3 -11 -41 -15
-85 -5 -62 -11 -80 -22 -80 -13 0 -14 10 -9 58 4 31 9 69 12 84 6 30 4 31 -83
42 l-42 6 -6 -42 c-3 -24 -7 -97 -8 -163 l-2 -120 52 0 c56 -1 63 6 63 67 0
34 9 58 22 58 7 0 8 -22 4 -64 l-6 -63 157 -12 c266 -19 261 -19 267 4 3 11 6
32 6 48 0 18 5 27 16 27 13 0 15 -8 9 -49 -6 -47 -6 -49 20 -53 32 -7 36 2 81
160 16 56 31 102 35 102 3 0 16 -19 29 -42 13 -24 24 -44 26 -46 1 -2 35 8 74
22 67 24 98 26 85 6 -5 -9 -92 -40 -123 -44 -23 -4 -22 -10 16 -91 39 -83 100
-244 108 -285 l6 -28 56 19 c54 19 89 19 78 1 -3 -5 -32 -17 -66 -27 -39 -12
-59 -23 -56 -31 2 -6 15 -63 27 -125 12 -63 25 -116 29 -119 4 -3 17 -36 30
-75 12 -38 24 -72 26 -73 1 -2 34 7 73 19 66 21 90 22 77 1 -3 -5 -33 -17 -67
-27 -67 -21 -75 -29 -60 -68 10 -24 8 -27 -17 -33 -46 -10 -52 -13 -59 -31 -4
-10 -10 -20 -13 -23 -4 -3 -12 -60 -18 -128 -6 -67 -14 -127 -17 -132 -3 -6
-30 -10 -59 -10 -29 0 -155 -7 -282 -15 -601 -39 -999 -105 -1174 -196 -186
-96 -303 -231 -331 -384 -13 -71 -6 -219 16 -320 47 -221 240 -679 486 -1152
49 -95 89 -175 89 -178 0 -5 -215 -147 -345 -229 -33 -20 -125 -79 -204 -131
-79 -51 -149 -91 -156 -89 -12 5 -131 -60 -274 -149 l-69 -43 64 -104 c35 -58
65 -109 67 -114 4 -11 40 8 208 107 97 57 135 85 132 96 -3 11 46 48 167 126
94 61 248 160 343 221 l172 112 26 -47 c14 -25 87 -156 161 -291 75 -135 156
-280 179 -322 l44 -78 145 0 c80 0 182 3 227 6 l81 7 -35 96 c-59 161 -222
627 -278 793 l-53 157 196 127 c223 144 262 168 266 163 1 -2 -1 -110 -5 -239
-24 -689 53 -1259 200 -1489 87 -135 179 -175 466 -200 104 -10 561 -7 700 4
553 43 1162 116 1725 208 l135 22 -1 135 c-1 74 -5 195 -9 268 l-7 133 -57 -6
c-61 -6 -424 -27 -801 -47 -335 -17 -1151 -17 -1255 1 -105 17 -149 36 -165
69 -21 44 -24 188 -5 333 38 308 181 901 351 1466 l25 82 75 40 c41 23 105 62
142 88 89 63 235 205 275 266 34 52 48 62 454 323 111 71 202 133 203 137 0 5
-13 28 -30 52 -25 36 -30 54 -30 100 0 43 -3 56 -13 52 -7 -3 -71 -43 -143
-89 -71 -47 -162 -106 -203 -132 l-74 -47 7 33 c39 183 40 197 42 483 3 310
-2 361 -46 470 -5 11 -18 69 -29 129 -11 60 -22 111 -24 113 -2 1 -36 -8 -77
-22 -68 -23 -97 -25 -85 -5 3 5 36 18 73 31 37 12 70 23 74 26 4 2 -4 36 -18
75 -13 40 -22 78 -20 85 7 17 -14 86 -30 98 -8 5 -24 40 -36 76 l-23 67 -70
-24 c-79 -27 -98 -29 -93 -12 2 6 38 23 80 37 l76 26 -24 75 c-13 41 -24 81
-24 88 0 8 -16 51 -36 97 l-36 84 30 38 c16 21 42 49 56 62 14 14 26 30 26 37
0 6 -21 35 -46 63 l-45 51 66 84 c42 55 62 87 54 92 -6 3 -15 0 -20 -7 -18
-30 -84 -109 -91 -109 -3 0 -21 12 -40 27 -18 15 -35 28 -37 29 -2 2 18 30 43
63 25 33 46 63 46 68 0 4 -27 28 -60 53 -33 24 -60 50 -60 57 0 21 12 16 75
-33 l60 -47 -50 52 c-49 51 -184 161 -198 161 -18 0 -2 -19 48 -58 53 -42 67
-62 44 -62 -6 0 -34 18 -61 40 -28 22 -54 40 -59 40 -5 0 -27 -25 -50 -55 -23
-30 -47 -55 -53 -55 -7 0 -27 13 -46 28 l-34 29 47 61 c26 33 47 63 47 65 0
17 -103 76 -148 86 -54 11 -186 14 -210 4z m153 -382 c12 -36 27 -67 33 -69 7
-2 41 6 78 18 36 12 68 20 71 17 12 -12 -11 -27 -75 -48 -37 -12 -68 -23 -69
-24 -2 -1 8 -35 22 -75 14 -40 25 -75 25 -76 0 -6 -93 -33 -100 -29 -3 2 -15
32 -25 67 -10 35 -21 67 -25 71 -4 5 -38 -2 -76 -14 -85 -27 -86 -27 -91 -12
-3 8 23 20 69 34 40 12 76 25 81 28 4 4 -4 40 -18 80 l-24 72 32 14 c55 25 68
17 92 -54z m238 -25 c3 -8 -2 -16 -14 -19 -23 -6 -37 12 -18 24 19 12 26 11
32 -5z m-1485 -18 c-6 -17 -71 -37 -104 -30 -28 5 -27 6 21 23 59 21 88 23 83
7z m821 -98 c12 -39 28 -70 35 -70 7 0 39 9 71 20 68 24 75 24 75 7 0 -7 -31
-23 -70 -36 -39 -12 -70 -28 -70 -35 0 -7 9 -39 20 -71 25 -73 25 -74 -5 -85
-70 -26 -69 -27 -93 49 -13 39 -27 73 -31 76 -5 2 -41 -7 -82 -20 -86 -29 -79
-29 -79 -11 0 9 26 23 68 36 37 13 71 26 76 30 5 5 -1 36 -13 71 -27 81 -27
84 12 97 59 18 62 16 86 -58z m-783 -50 c-8 -75 -4 -80 59 -80 58 0 65 -7 65
-62 l0 -50 -74 7 -74 7 -7 -81 c-5 -62 -11 -81 -22 -81 -13 0 -14 10 -9 58 4
31 9 69 12 83 5 27 5 27 -75 34 l-81 7 0 38 c0 75 0 75 137 54 l31 -5 7 58 c9
77 14 95 27 87 7 -4 8 -31 4 -74z m360 -95 c13 -38 24 -71 24 -72 0 -1 32 9
72 23 84 28 78 28 78 10 0 -9 -26 -23 -70 -37 -38 -13 -70 -25 -70 -28 0 -4
11 -37 24 -76 l24 -70 -26 -11 c-66 -29 -73 -25 -98 50 -13 38 -25 71 -28 73
-2 2 -36 -8 -77 -22 -84 -29 -89 -30 -89 -11 0 8 17 20 38 26 20 6 56 18 79
26 l41 15 -24 71 c-13 39 -24 75 -24 79 0 8 68 28 89 26 7 -1 24 -33 37 -72z
m991 -140 c12 -37 25 -70 27 -72 2 -3 36 6 75 18 39 13 74 20 78 16 11 -12 -8
-23 -79 -46 l-67 -22 18 -52 c36 -105 36 -103 -15 -116 -25 -6 -49 -9 -53 -7
-4 3 -16 33 -26 67 -10 33 -24 63 -30 65 -6 3 -37 -5 -69 -16 -64 -22 -96 -25
-96 -11 0 5 36 21 80 36 44 15 80 28 80 29 0 1 -11 36 -25 76 -14 40 -22 76
-19 79 8 8 77 29 88 27 5 -1 20 -33 33 -71z m343 6 c0 -9 -113 -51 -138 -51
-29 0 -3 25 44 41 55 20 94 24 94 10z m-769 -151 c13 -39 26 -70 30 -70 4 0
36 9 71 20 75 23 78 24 78 7 0 -7 -31 -23 -70 -36 -38 -12 -70 -25 -70 -29 0
-4 9 -36 20 -72 11 -36 20 -68 20 -71 0 -6 -69 -29 -88 -29 -6 0 -21 32 -33
70 -13 39 -28 70 -34 70 -6 0 -44 -11 -84 -25 -63 -21 -72 -22 -69 -8 2 10 28
24 71 38 37 12 70 25 73 28 3 3 -4 38 -16 77 -12 39 -19 74 -15 78 9 10 79 29
87 25 4 -2 17 -35 29 -73z m-976 -59 l-7 -79 62 -7 c45 -5 60 -11 56 -20 -3
-8 -8 -30 -12 -50 l-7 -37 -56 4 -56 3 -10 -79 c-6 -47 -15 -81 -22 -84 -15
-4 -16 33 -4 115 l7 52 -45 6 c-72 9 -116 19 -113 28 1 4 2 26 2 48 l0 41 84
-7 84 -7 7 69 c8 74 11 83 27 83 7 0 8 -26 3 -79z m545 -68 c13 -38 26 -72 30
-77 5 -5 36 1 71 13 74 25 79 25 79 8 0 -7 -31 -23 -70 -36 -38 -12 -70 -23
-70 -25 0 -1 11 -35 25 -75 l24 -72 -34 -15 c-61 -25 -71 -20 -89 44 -25 90
-23 88 -109 59 -71 -23 -87 -25 -87 -6 0 4 36 19 80 34 44 15 80 28 80 29 0 1
-11 36 -25 76 -14 40 -24 75 -22 77 4 4 79 31 89 32 3 1 16 -29 28 -66z m997
-158 c14 -38 26 -72 28 -73 2 -2 35 7 74 19 39 13 74 20 78 16 11 -12 -8 -23
-79 -46 l-66 -22 24 -71 c13 -39 21 -74 18 -77 -11 -11 -89 -30 -95 -23 -3 4
-11 27 -18 51 -7 25 -17 55 -22 67 l-8 23 -73 -25 c-67 -23 -106 -25 -94 -6 3
4 39 19 80 32 42 13 76 26 76 30 0 4 -11 39 -24 78 -21 61 -22 73 -10 83 8 6
14 9 14 6 0 -4 10 -2 23 3 39 16 50 7 74 -65z m-426 -140 c12 -41 25 -75 29
-75 4 0 33 9 65 20 67 23 88 25 83 8 -2 -6 -32 -21 -65 -32 -34 -12 -65 -24
-68 -28 -4 -4 3 -37 15 -73 12 -37 18 -70 14 -75 -11 -9 -84 -33 -88 -28 -2 1
-13 33 -25 71 -13 37 -28 67 -34 67 -6 0 -41 -10 -79 -22 -37 -12 -71 -19 -75
-15 -11 12 8 23 80 47 37 12 67 27 67 34 0 7 -9 39 -20 71 -11 32 -20 64 -20
71 0 10 51 30 87 33 7 1 22 -31 34 -74z m-426 -140 c13 -38 27 -71 32 -72 5
-2 35 6 68 17 69 24 75 24 75 7 0 -7 -30 -23 -69 -35 l-69 -22 18 -58 c10 -31
21 -64 25 -73 5 -13 -4 -21 -39 -34 -24 -9 -49 -15 -54 -12 -4 4 -17 34 -27
68 -10 33 -24 63 -31 66 -6 2 -39 -5 -72 -16 -70 -24 -95 -26 -90 -9 2 6 38
23 79 36 41 13 75 25 76 26 2 2 -8 36 -22 76 -14 40 -22 76 -19 79 10 10 68
30 83 28 8 -1 24 -33 36 -72z m995 -150 c13 -38 24 -71 25 -72 1 -2 34 8 73
21 66 23 82 24 82 5 0 -4 -31 -18 -70 -30 -79 -26 -80 -28 -50 -107 11 -29 20
-56 20 -61 0 -13 -90 -35 -99 -25 -5 5 -16 34 -26 64 -10 30 -19 58 -22 62 -2
4 -36 -4 -75 -18 -83 -28 -88 -29 -88 -11 0 8 31 23 75 37 41 13 75 26 75 30
0 3 -11 39 -24 79 l-24 73 32 13 c51 20 61 23 67 16 4 -3 17 -37 29 -76z
m-430 -133 c13 -37 25 -70 29 -74 3 -3 33 2 66 13 70 22 88 23 83 7 -3 -7 -31
-21 -64 -31 -32 -10 -62 -21 -66 -25 -5 -5 1 -35 12 -67 26 -76 26 -81 -11
-94 -59 -20 -66 -16 -90 57 -12 37 -22 68 -23 69 -1 1 -35 -9 -76 -23 -87 -28
-90 -28 -90 -10 0 8 20 19 48 26 26 8 61 19 78 26 l32 13 -24 66 c-13 36 -24
72 -24 80 0 13 78 46 92 39 3 -3 16 -35 28 -72z m-425 -143 c16 -48 32 -79 39
-76 70 27 128 39 137 30 8 -8 -9 -17 -58 -33 -37 -13 -71 -24 -75 -27 -4 -2 2
-29 13 -60 10 -31 18 -57 16 -59 -1 -1 -25 -6 -53 -9 l-50 -7 -14 43 c-7 24
-15 47 -17 51 -2 4 -36 -4 -75 -18 -80 -27 -102 -30 -96 -12 2 6 38 23 79 36
41 14 76 26 78 28 2 2 -9 37 -23 80 -15 42 -26 78 -24 79 2 1 23 9 48 18 25 8
46 16 47 16 1 1 13 -35 28 -80z m-1070 -1750 c88 -5 219 -13 292 -17 73 -5
134 -10 136 -13 4 -4 -20 -340 -29 -394 -4 -27 -32 -48 -272 -202 -147 -94
-271 -172 -277 -173 -5 -1 -20 29 -31 67 -120 383 -146 472 -168 560 -14 56
-26 120 -26 142 l0 41 108 0 c59 0 179 -5 267 -11z"/>
<path d="M10220 8221 l-155 -149 19 -21 c11 -12 26 -19 33 -17 7 3 56 -20 108
-51 74 -43 113 -74 173 -139 l76 -84 31 29 c29 29 174 101 201 101 8 0 14 3
14 7 0 4 -47 55 -105 113 -84 85 -114 123 -155 199 -28 52 -48 101 -45 109 5
14 -20 53 -34 52 -3 -1 -76 -68 -161 -149z"/>
<path d="M11010 7456 c-35 -23 -114 -52 -157 -58 -19 -3 5 -32 150 -182 154
-160 175 -179 198 -173 14 4 58 40 98 81 58 60 71 80 66 96 -8 26 -211 238
-234 244 -59 16 -87 14 -121 -8z"/>
<path d="M15519 7391 c-9 -3 -43 -24 -76 -45 l-60 -39 15 -41 c8 -23 17 -75
20 -117 l4 -77 108 69 c59 39 110 78 113 88 5 21 -10 61 -46 118 -26 41 -50
55 -78 44z"/>
<path d="M16193 4293 c-115 -87 -183 -146 -183 -158 0 -7 34 -83 75 -170 l75
-157 -25 -30 c-27 -32 -32 -67 -13 -86 18 -18 27 -15 47 18 l18 31 7 -32 c3
-18 11 -38 17 -46 16 -19 46 -16 54 5 5 14 4 15 -6 5 -20 -20 -35 -16 -47 12
-15 32 -16 85 -2 85 6 0 20 -19 31 -42 15 -31 19 -35 14 -15 -5 25 -3 27 12
18 39 -21 156 -153 258 -289 58 -79 113 -146 122 -149 23 -9 64 39 70 83 5 36
-8 67 -132 314 -76 151 -173 353 -216 449 -43 96 -84 178 -91 183 -22 13 -35
9 -85 -29z m-30 -566 c-23 -38 -37 -41 -41 -8 -3 15 6 33 25 53 27 28 28 28
31 8 2 -11 -5 -35 -15 -53z"/>
<path d="M12210 3698 c0 -12 7 -30 17 -40 15 -17 14 -18 -28 -13 -54 7 -79 -6
-63 -32 6 -10 24 -19 40 -20 l29 -2 -30 7 c-35 8 -40 36 -7 40 25 4 92 -16 92
-26 0 -12 -151 -79 -225 -101 -38 -11 -135 -32 -215 -46 -80 -14 -155 -30
-167 -35 -27 -11 -30 -45 -7 -78 35 -50 34 -50 569 -48 275 1 506 5 513 9 6 5
12 19 12 31 0 21 -42 222 -56 269 -5 15 -23 17 -190 17 l-184 0 -11 27 c-15
40 -39 63 -66 63 -17 0 -23 -6 -23 -22z m58 -1 c19 -23 32 -66 21 -72 -12 -8
-69 51 -69 71 0 18 34 18 48 1z"/>
</g>
</svg>
